<svg xmlns="http://www.w3.org/2000/svg" width="944" height="988" viewBox="0 0 944 988">
<path d="M 760 366 L 747 367 L 735 374 L 726 383 L 717 397 L 709 421 L 706 424 L 700 426 L 698 423 L 695 426 L 691 411 L 684 407 L 682 403 L 680 404 L 691 411 L 694 423 L 689 427 L 688 421 L 682 418 L 689 414 L 683 416 L 682 411 L 687 411 L 684 413 L 687 411 L 683 409 L 682 416 L 674 418 L 674 423 L 674 419 L 677 418 L 677 427 L 679 429 L 674 433 L 676 435 L 672 436 L 683 437 L 678 437 L 675 433 L 677 431 L 680 434 L 684 434 L 688 442 L 685 452 L 682 445 L 678 446 L 680 448 L 678 453 L 681 455 L 685 453 L 682 457 L 681 465 L 690 485 L 687 492 L 684 484 L 681 485 L 678 481 L 683 476 L 680 473 L 680 468 L 678 468 L 677 478 L 674 478 L 678 484 L 677 492 L 678 486 L 683 490 L 684 494 L 681 487 L 683 486 L 687 492 L 687 497 L 672 560 L 667 575 L 657 591 L 649 599 L 647 597 L 659 584 L 663 573 L 666 571 L 664 571 L 659 583 L 650 594 L 642 599 L 641 603 L 639 601 L 642 606 L 640 607 L 639 605 L 639 608 L 625 618 L 622 618 L 620 621 L 619 618 L 626 614 L 627 597 L 620 601 L 621 605 L 620 602 L 624 601 L 626 597 L 627 599 L 625 609 L 623 609 L 623 605 L 623 611 L 621 612 L 621 609 L 619 612 L 613 604 L 616 597 L 617 603 L 617 598 L 614 595 L 616 596 L 613 597 L 615 600 L 610 621 L 607 620 L 605 608 L 608 623 L 612 619 L 613 606 L 619 612 L 616 617 L 615 613 L 615 619 L 610 624 L 611 627 L 642 607 L 657 592 L 669 570 L 690 485 L 688 481 L 689 476 L 688 474 L 688 479 L 686 477 L 687 467 L 685 462 L 688 463 L 691 471 L 690 467 L 694 468 L 691 481 L 697 461 L 696 448 L 697 460 L 693 465 L 695 467 L 691 466 L 693 461 L 692 457 L 692 463 L 689 460 L 692 454 L 691 445 L 692 453 L 689 456 L 691 465 L 689 466 L 687 461 L 685 461 L 687 471 L 685 473 L 681 460 L 687 451 L 686 446 L 688 442 L 685 437 L 689 435 L 685 429 L 688 426 L 691 428 L 693 425 L 698 425 L 702 428 L 702 425 L 706 425 L 700 441 L 698 440 L 698 434 L 692 437 L 695 446 L 695 437 L 699 441 L 699 453 L 699 442 L 702 440 L 703 430 L 707 429 L 690 502 L 690 510 L 698 520 L 711 522 L 724 515 L 749 481 L 757 462 L 772 411 L 771 381 L 766 371 Z" stroke="black" fill="none"/>
<path d="M 91 494 L 140 509 L 198 522 L 275 534 L 322 538 L 326 551 L 314 552 L 197 536 L 130 521 L 93 509 L 92 512 L 99 515 L 171 533 L 172 535 L 146 577 L 144 575 L 165 540 L 143 577 L 146 578 L 144 580 L 90 569 L 90 572 L 139 582 L 207 592 L 350 603 L 363 614 L 330 614 L 236 606 L 151 595 L 89 584 L 210 603 L 316 613 L 363 614 L 364 616 L 351 603 L 305 601 L 207 592 L 139 582 L 91 572 L 90 570 L 92 569 L 144 580 L 231 592 L 348 600 L 333 578 L 327 555 L 262 549 L 180 536 L 119 521 L 92 511 L 93 509 L 119 518 L 167 530 L 277 548 L 326 553 L 323 538 L 275 534 L 198 522 L 140 509 Z" stroke="black" fill="none"/>
<path d="M 532 373 L 526 388 L 521 415 L 523 418 L 529 419 L 550 431 L 568 436 L 592 435 L 611 427 L 626 411 L 629 414 L 616 429 L 593 440 L 569 441 L 555 435 L 558 438 L 569 441 L 588 441 L 605 436 L 622 424 L 624 427 L 609 441 L 601 445 L 589 447 L 569 446 L 532 429 L 528 425 L 524 425 L 524 427 L 533 435 L 537 436 L 524 426 L 527 425 L 568 446 L 590 447 L 601 445 L 611 440 L 629 423 L 630 419 L 626 425 L 622 424 L 629 415 L 633 419 L 631 423 L 646 430 L 654 438 L 631 426 L 628 432 L 628 429 L 626 430 L 628 432 L 625 436 L 622 436 L 606 447 L 596 449 L 606 447 L 623 436 L 637 441 L 644 447 L 638 441 L 626 436 L 632 427 L 654 439 L 655 437 L 647 430 L 632 423 L 633 419 L 626 411 L 634 395 L 631 378 L 624 365 L 611 353 L 592 346 L 567 347 L 546 357 Z" stroke="black" fill="none"/>
<path d="M 345 369 L 340 384 L 340 403 L 344 405 L 353 422 L 364 430 L 379 435 L 398 435 L 414 431 L 436 419 L 440 419 L 444 415 L 440 395 L 431 373 L 421 360 L 408 352 L 395 348 L 372 349 L 358 355 Z" stroke="black" fill="none"/>
<path d="M 583 806 L 593 844 L 585 854 L 585 866 L 592 879 L 661 879 L 662 834 L 660 806 L 644 806 L 645 810 L 651 809 L 657 812 L 658 877 L 656 879 L 654 877 L 654 813 L 642 813 L 641 809 L 642 813 L 636 818 L 625 823 L 613 823 L 612 818 L 615 815 L 613 811 L 587 813 L 584 811 L 585 809 L 607 809 L 607 806 Z" stroke="black" fill="none"/>
<path d="M 937 493 L 891 506 L 887 505 L 884 497 L 883 503 L 884 505 L 883 500 L 885 500 L 886 507 L 882 506 L 881 501 L 882 507 L 934 493 L 936 494 L 935 496 L 867 515 L 816 525 L 737 536 L 684 541 L 683 539 L 679 555 L 733 550 L 849 533 L 918 517 L 935 511 L 936 513 L 894 526 L 827 540 L 751 551 L 678 557 L 673 575 L 664 591 L 655 600 L 654 604 L 638 615 L 672 615 L 770 608 L 856 598 L 937 585 L 937 587 L 885 597 L 798 608 L 700 616 L 636 618 L 569 663 L 569 666 L 588 672 L 600 683 L 615 692 L 937 680 L 615 692 L 589 672 L 569 665 L 592 647 L 636 618 L 700 616 L 798 608 L 885 597 L 939 587 L 939 585 L 932 585 L 856 598 L 770 608 L 643 616 L 641 614 L 653 604 L 721 601 L 811 593 L 936 573 L 811 593 L 690 603 L 656 604 L 655 601 L 668 586 L 679 557 L 713 554 L 724 595 L 714 557 L 715 554 L 775 547 L 794 589 L 777 549 L 778 547 L 783 547 L 801 590 L 749 596 L 658 601 L 723 598 L 811 590 L 937 570 L 885 579 L 859 535 L 860 533 L 936 514 L 935 511 L 886 525 L 804 541 L 713 552 L 679 553 L 681 544 L 685 540 L 755 534 L 838 521 L 917 502 L 936 496 Z" stroke="black" fill="none"/>
<path d="M 387 813 L 387 875 L 401 879 L 446 879 L 447 876 L 443 868 L 442 851 L 438 835 L 450 813 Z" stroke="black" fill="none"/>
<path d="M 582 673 L 594 685 L 605 692 L 583 675 L 584 673 L 615 696 L 610 695 L 609 697 L 583 678 L 580 678 L 590 689 L 610 701 L 614 706 L 608 716 L 596 726 L 583 717 L 579 718 L 574 764 L 579 774 L 581 802 L 607 803 L 609 791 L 622 777 L 622 769 L 614 746 L 613 730 L 609 727 L 599 729 L 596 726 L 608 717 L 614 704 L 591 689 L 580 679 L 584 679 L 611 699 L 616 700 L 615 696 L 618 698 L 618 704 L 613 715 L 600 726 L 613 716 L 618 704 L 618 698 Z" stroke="black" fill="none"/>
<path d="M 560 872 L 551 861 L 543 860 L 538 856 L 535 843 L 526 828 L 519 829 L 511 834 L 492 851 L 476 844 L 471 845 L 478 860 L 478 880 L 560 879 Z" stroke="black" fill="none"/>
<path d="M 415 892 L 412 897 L 398 895 L 393 911 L 403 926 L 416 925 L 417 927 L 403 929 L 399 939 L 393 946 L 400 930 L 396 919 L 390 912 L 371 913 L 362 928 L 371 947 L 392 945 L 400 958 L 409 957 L 416 953 L 421 941 L 417 926 L 421 912 L 426 910 Z" stroke="black" fill="none"/>
<path d="M 384 878 L 380 879 L 379 884 L 377 879 L 372 879 L 356 885 L 343 896 L 335 912 L 343 897 L 346 898 L 344 896 L 346 894 L 348 896 L 363 895 L 362 897 L 348 899 L 340 912 L 339 917 L 345 929 L 341 943 L 345 947 L 341 943 L 345 931 L 358 931 L 369 947 L 369 950 L 362 960 L 357 957 L 355 953 L 357 952 L 348 949 L 354 951 L 357 957 L 356 959 L 351 958 L 347 954 L 350 952 L 351 954 L 351 952 L 348 953 L 345 949 L 348 953 L 347 958 L 348 956 L 350 963 L 361 970 L 377 974 L 396 972 L 416 960 L 416 957 L 408 960 L 399 961 L 388 969 L 381 971 L 365 962 L 360 963 L 350 959 L 364 960 L 369 950 L 369 946 L 359 931 L 347 931 L 345 929 L 360 928 L 369 912 L 363 900 L 363 895 L 378 884 L 396 893 L 411 893 L 413 891 L 406 883 Z" stroke="black" fill="none"/>
<path d="M 419 545 L 424 561 L 428 560 L 433 567 L 439 565 L 444 570 L 455 570 L 457 572 L 455 574 L 447 574 L 440 570 L 434 571 L 429 569 L 431 573 L 451 584 L 468 589 L 487 590 L 509 586 L 536 574 L 542 568 L 538 567 L 531 573 L 523 570 L 518 574 L 506 574 L 499 578 L 460 577 L 455 574 L 457 572 L 464 575 L 499 575 L 506 571 L 517 571 L 522 567 L 531 570 L 537 561 L 530 570 L 522 566 L 516 571 L 505 571 L 499 575 L 464 575 L 456 570 L 447 571 L 440 565 L 434 567 L 429 562 L 425 549 L 427 545 L 435 552 L 437 552 L 439 546 L 446 547 L 451 553 L 453 551 L 451 552 L 444 546 L 437 547 L 435 551 L 431 546 L 426 545 L 425 549 L 428 560 L 426 559 L 425 561 L 419 548 L 420 545 L 422 546 Z" stroke="black" fill="none"/>
<path d="M 464 813 L 456 812 L 442 833 L 441 838 L 446 855 L 455 856 L 468 852 L 470 849 L 467 845 L 485 835 L 482 826 L 474 819 L 482 827 L 485 834 L 469 842 L 467 846 L 470 849 L 467 852 L 462 848 L 475 831 L 475 823 L 470 816 Z" stroke="black" fill="none"/>
<path d="M 366 66 L 365 71 L 374 67 L 392 87 L 390 89 L 373 71 L 396 97 L 395 99 L 392 98 L 410 124 L 406 127 L 410 123 L 402 112 L 404 111 L 407 115 L 394 100 L 396 98 L 401 106 L 398 101 L 400 100 L 412 110 L 394 94 L 396 91 L 423 115 L 423 108 L 428 117 L 451 137 L 448 137 L 450 139 L 452 138 L 458 146 L 456 147 L 463 154 L 460 155 L 438 130 L 460 156 L 464 155 L 468 162 L 466 159 L 468 157 L 464 156 L 465 152 L 454 132 L 413 90 L 401 84 L 402 86 L 399 88 L 401 92 L 408 87 L 410 89 L 403 93 L 406 97 L 405 101 L 394 89 L 395 86 L 392 91 L 390 89 L 392 82 L 394 81 L 395 84 L 395 79 L 391 81 L 391 86 L 376 69 L 381 67 L 380 64 L 369 63 Z" stroke="black" fill="none"/>
<path d="M 91 700 L 279 708 L 397 710 L 398 712 L 371 754 L 351 776 L 350 786 L 355 798 L 366 805 L 372 805 L 373 803 L 368 794 L 368 789 L 374 782 L 376 783 L 376 796 L 380 798 L 383 796 L 387 781 L 387 772 L 384 765 L 387 760 L 411 742 L 422 727 L 428 724 L 441 726 L 455 718 L 467 716 L 475 727 L 488 753 L 486 764 L 488 769 L 478 786 L 456 803 L 380 803 L 377 809 L 376 836 L 187 837 L 87 840 L 87 843 L 186 840 L 376 839 L 378 871 L 374 876 L 362 879 L 84 882 L 84 885 L 352 882 L 336 901 L 331 915 L 330 931 L 336 952 L 354 970 L 329 972 L 330 977 L 365 982 L 463 984 L 471 987 L 474 985 L 481 987 L 485 986 L 483 977 L 485 975 L 486 977 L 486 975 L 483 977 L 484 984 L 481 987 L 475 985 L 471 987 L 464 984 L 444 985 L 438 982 L 437 984 L 351 981 L 331 977 L 328 974 L 334 971 L 355 970 L 372 977 L 398 975 L 413 967 L 422 958 L 431 942 L 436 946 L 442 943 L 447 946 L 452 942 L 457 943 L 466 933 L 469 935 L 475 932 L 480 933 L 484 925 L 484 917 L 476 898 L 476 885 L 478 882 L 559 882 L 563 896 L 574 913 L 574 939 L 571 951 L 525 948 L 475 951 L 462 956 L 436 958 L 425 962 L 423 960 L 423 965 L 416 968 L 423 966 L 422 964 L 428 960 L 462 956 L 475 951 L 515 948 L 572 951 L 574 913 L 563 895 L 560 882 L 477 882 L 476 898 L 484 917 L 482 930 L 471 935 L 465 933 L 456 943 L 453 941 L 447 946 L 444 943 L 437 946 L 430 941 L 426 951 L 416 964 L 406 971 L 390 977 L 372 977 L 355 970 L 340 957 L 332 942 L 330 931 L 332 911 L 339 897 L 353 882 L 85 885 L 85 882 L 362 879 L 378 874 L 385 875 L 384 812 L 391 809 L 451 810 L 453 806 L 381 806 L 381 873 L 379 875 L 377 873 L 377 839 L 186 840 L 88 843 L 87 841 L 187 837 L 377 836 L 377 809 L 381 803 L 457 803 L 478 787 L 488 769 L 486 764 L 488 753 L 469 717 L 461 716 L 440 726 L 433 724 L 424 725 L 410 742 L 387 759 L 384 765 L 387 772 L 384 793 L 380 798 L 375 793 L 376 782 L 372 783 L 368 789 L 368 795 L 373 803 L 367 805 L 355 797 L 350 786 L 351 777 L 371 755 L 388 726 L 400 711 L 279 708 Z" stroke="black" fill="none"/>
<path d="M 399 631 L 401 636 L 399 639 L 437 681 L 447 685 L 448 681 L 450 687 L 476 690 L 477 683 L 481 691 L 491 690 L 492 686 L 495 691 L 501 690 L 502 681 L 504 685 L 503 691 L 510 689 L 504 690 L 503 681 L 501 681 L 500 685 L 496 682 L 490 683 L 490 677 L 487 677 L 486 684 L 484 683 L 483 685 L 477 682 L 477 677 L 480 677 L 477 669 L 479 664 L 484 681 L 483 677 L 485 677 L 482 671 L 484 670 L 483 662 L 487 660 L 485 655 L 487 659 L 485 660 L 484 657 L 484 661 L 477 665 L 476 669 L 480 673 L 479 677 L 473 669 L 472 660 L 473 670 L 475 671 L 473 676 L 469 664 L 470 660 L 471 672 L 467 673 L 467 677 L 465 677 L 464 669 L 462 668 L 467 681 L 467 689 L 465 688 L 464 679 L 465 688 L 462 688 L 462 677 L 458 675 L 461 677 L 462 688 L 458 687 L 459 678 L 457 679 L 458 687 L 456 687 L 454 682 L 455 676 L 453 683 L 456 687 L 450 686 L 443 672 L 446 666 L 445 659 L 449 656 L 452 680 L 449 666 L 452 665 L 453 667 L 451 662 L 450 665 L 448 660 L 450 657 L 453 657 L 451 654 L 453 653 L 444 658 L 446 660 L 445 668 L 441 669 L 443 663 L 441 664 L 442 668 L 440 667 L 447 679 L 443 681 L 447 684 L 439 682 L 428 672 L 429 665 L 433 669 L 431 668 L 432 664 L 440 657 L 438 666 L 436 668 L 436 665 L 434 666 L 436 673 L 438 670 L 435 669 L 442 660 L 439 655 L 441 653 L 445 655 L 438 653 L 438 650 L 435 658 L 429 664 L 427 663 L 431 650 L 426 652 L 427 642 L 424 646 L 422 645 L 426 637 L 423 637 L 420 644 L 417 645 L 419 635 L 423 630 L 420 628 L 417 633 L 421 628 L 423 629 L 419 634 L 418 640 L 416 641 L 415 638 L 414 643 L 416 641 L 417 646 L 414 649 L 414 645 L 413 649 L 415 652 L 416 647 L 422 641 L 422 646 L 426 648 L 427 654 L 431 651 L 427 664 L 425 664 L 426 660 L 424 658 L 426 657 L 422 655 L 420 662 L 419 657 L 418 659 L 416 657 L 418 650 L 420 655 L 420 650 L 417 651 L 416 657 L 408 648 L 413 639 L 408 636 L 409 632 L 406 629 L 403 638 L 405 640 L 408 636 L 412 640 L 410 646 L 409 640 L 405 644 L 401 640 L 399 632 L 402 631 Z" stroke="black" fill="none"/>
<path d="M 628 205 L 628 211 L 642 224 L 644 228 L 642 233 L 644 228 L 649 235 L 645 238 L 650 245 L 651 253 L 651 249 L 654 252 L 652 259 L 649 259 L 646 250 L 642 246 L 644 242 L 647 246 L 644 241 L 642 246 L 644 249 L 639 253 L 642 263 L 639 265 L 634 276 L 644 291 L 643 294 L 644 291 L 634 276 L 637 273 L 643 281 L 640 278 L 642 276 L 644 279 L 646 274 L 650 276 L 646 281 L 648 285 L 647 279 L 651 275 L 654 278 L 651 282 L 653 281 L 654 284 L 654 278 L 643 259 L 646 263 L 644 265 L 640 259 L 639 254 L 641 252 L 654 274 L 642 253 L 645 250 L 658 276 L 661 276 L 661 270 L 664 266 L 686 287 L 691 288 L 697 293 L 696 295 L 686 291 L 675 281 L 672 281 L 672 278 L 664 270 L 672 278 L 664 283 L 663 279 L 665 284 L 668 279 L 673 281 L 684 290 L 707 300 L 716 307 L 719 305 L 722 308 L 719 309 L 722 309 L 703 290 L 687 279 L 689 277 L 707 291 L 709 289 L 707 287 L 709 290 L 707 291 L 704 288 L 705 284 L 699 279 L 702 278 L 707 282 L 698 273 L 692 273 L 670 253 L 679 262 L 677 264 L 674 262 L 689 275 L 687 279 L 675 270 L 675 273 L 678 273 L 683 280 L 680 277 L 681 275 L 694 284 L 692 286 L 688 283 L 697 289 L 693 286 L 694 284 L 716 303 L 714 305 L 708 299 L 702 299 L 697 296 L 698 293 L 705 297 L 675 277 L 664 266 L 665 262 L 661 269 L 662 274 L 659 276 L 655 272 L 650 261 L 654 262 L 656 268 L 652 255 L 655 251 L 657 254 L 651 238 L 655 240 L 657 249 L 660 250 L 658 257 L 662 253 L 645 224 L 651 218 L 645 221 L 652 235 L 651 238 L 642 223 L 634 215 L 636 213 L 634 215 L 633 212 L 630 212 L 633 209 L 637 211 L 640 208 L 642 210 L 639 212 L 641 213 L 639 217 L 643 211 L 641 208 L 632 209 L 630 212 L 627 208 Z" stroke="black" fill="none"/>
<path d="M 586 54 L 594 67 L 596 77 L 599 79 L 597 81 L 597 107 L 592 129 L 571 174 L 558 189 L 541 202 L 535 201 L 541 202 L 550 195 L 552 196 L 554 192 L 555 194 L 559 191 L 555 193 L 556 190 L 560 187 L 561 190 L 563 188 L 560 187 L 562 185 L 565 186 L 585 160 L 595 135 L 596 140 L 584 166 L 586 168 L 598 144 L 601 134 L 600 92 L 601 119 L 596 120 L 595 123 L 593 122 L 597 107 L 597 82 L 599 78 L 596 76 L 594 66 Z" stroke="black" fill="none"/>
<path d="M 940 840 L 860 838 L 857 822 L 858 802 L 855 805 L 855 819 L 852 819 L 853 802 L 859 794 L 865 792 L 872 793 L 878 799 L 875 801 L 875 836 L 878 833 L 878 826 L 883 821 L 882 800 L 879 794 L 873 790 L 869 790 L 866 793 L 860 790 L 851 799 L 849 817 L 850 821 L 855 825 L 856 836 L 855 824 L 849 817 L 850 803 L 858 791 L 864 791 L 856 796 L 852 807 L 852 819 L 854 821 L 855 805 L 858 803 L 858 838 L 789 837 L 786 826 L 787 806 L 785 807 L 783 822 L 780 817 L 783 804 L 788 798 L 798 796 L 803 798 L 810 807 L 810 821 L 811 812 L 808 802 L 802 797 L 789 797 L 783 804 L 780 816 L 781 821 L 784 822 L 785 807 L 787 807 L 787 837 L 747 837 L 745 835 L 745 827 L 751 820 L 751 806 L 747 795 L 742 790 L 736 789 L 741 790 L 747 796 L 751 806 L 751 819 L 746 823 L 744 836 L 887 838 L 939 840 L 940 842 L 665 839 L 665 877 L 663 879 L 887 880 L 942 882 L 942 885 L 802 882 L 593 882 L 591 914 L 598 928 L 603 949 L 594 960 L 582 960 L 574 952 L 574 954 L 581 960 L 594 960 L 599 957 L 603 950 L 607 951 L 604 958 L 609 955 L 614 956 L 611 955 L 615 951 L 618 958 L 619 954 L 625 952 L 628 955 L 646 957 L 647 959 L 650 957 L 659 958 L 664 962 L 657 968 L 621 971 L 620 974 L 623 973 L 625 979 L 615 981 L 578 982 L 577 980 L 570 983 L 556 983 L 555 981 L 552 984 L 526 985 L 523 987 L 496 987 L 493 984 L 500 977 L 500 975 L 496 975 L 494 977 L 491 976 L 486 983 L 487 986 L 491 986 L 493 978 L 497 975 L 500 976 L 493 984 L 496 987 L 523 987 L 526 985 L 553 984 L 555 982 L 625 980 L 633 978 L 633 976 L 630 978 L 627 973 L 631 970 L 657 968 L 663 965 L 664 961 L 659 958 L 628 955 L 626 952 L 618 955 L 617 951 L 612 951 L 615 947 L 607 951 L 602 948 L 600 934 L 591 913 L 594 882 L 802 882 L 943 885 L 943 882 L 887 880 L 666 879 L 664 876 L 664 842 L 666 839 L 835 840 L 940 843 Z" stroke="black" fill="none"/>
<path d="M 592 251 L 547 250 L 489 260 L 466 259 L 429 252 L 417 252 L 417 254 L 467 262 L 488 263 L 535 254 L 592 253 Z" stroke="black" fill="none"/>
<path d="M 659 187 L 679 186 L 712 195 L 712 189 L 718 193 L 722 191 L 718 193 L 717 191 L 719 190 L 717 188 L 720 187 L 717 188 L 714 184 L 695 179 L 682 179 L 662 183 Z" stroke="black" fill="none"/>
<path d="M 277 148 L 273 164 L 265 171 L 262 185 L 256 197 L 255 207 L 258 217 L 268 227 L 263 245 L 263 251 L 267 259 L 266 273 L 271 283 L 271 289 L 278 310 L 288 365 L 278 310 L 266 272 L 267 258 L 263 251 L 263 245 L 267 236 L 268 226 L 258 216 L 255 201 L 262 186 L 264 174 L 273 165 L 274 154 L 277 149 L 286 144 L 300 131 L 300 120 L 304 111 L 311 104 L 318 101 L 330 87 L 347 81 L 352 68 L 357 63 L 375 59 L 395 45 L 418 45 L 428 42 L 454 27 L 464 25 L 492 27 L 529 19 L 554 23 L 578 37 L 603 42 L 616 49 L 634 51 L 651 57 L 659 62 L 685 88 L 696 107 L 696 121 L 712 120 L 726 126 L 746 147 L 753 160 L 773 183 L 777 192 L 781 215 L 777 219 L 777 245 L 770 270 L 765 279 L 747 360 L 749 363 L 760 362 L 771 371 L 776 385 L 775 416 L 765 444 L 760 467 L 748 491 L 726 519 L 714 526 L 703 527 L 694 522 L 690 515 L 688 515 L 683 536 L 696 537 L 785 527 L 838 518 L 880 508 L 878 500 L 880 507 L 878 509 L 865 512 L 861 504 L 864 493 L 861 489 L 854 488 L 849 492 L 851 502 L 858 503 L 852 502 L 849 498 L 849 493 L 854 488 L 860 489 L 864 494 L 864 498 L 860 502 L 863 511 L 860 510 L 859 505 L 861 512 L 858 514 L 840 517 L 838 510 L 838 518 L 835 509 L 842 505 L 843 499 L 840 494 L 834 493 L 829 496 L 828 504 L 835 509 L 836 518 L 755 531 L 696 537 L 683 536 L 689 516 L 693 522 L 703 527 L 714 526 L 727 519 L 748 492 L 760 467 L 765 444 L 775 416 L 776 385 L 771 370 L 765 364 L 760 362 L 749 363 L 747 360 L 758 306 L 777 245 L 777 220 L 780 219 L 781 215 L 780 204 L 773 182 L 753 159 L 746 146 L 727 126 L 712 120 L 698 120 L 696 107 L 685 87 L 660 62 L 652 57 L 634 51 L 617 49 L 603 42 L 579 37 L 564 27 L 542 20 L 518 20 L 492 27 L 480 25 L 458 26 L 437 35 L 425 43 L 418 45 L 395 45 L 386 49 L 374 59 L 356 63 L 352 67 L 346 81 L 329 87 L 316 102 L 310 104 L 304 110 L 300 120 L 300 130 L 285 144 Z" stroke="black" fill="none"/>
<path d="M 333 89 L 319 106 L 318 118 L 320 125 L 318 109 L 334 89 L 335 91 L 331 96 L 330 102 L 325 103 L 320 112 L 324 106 L 328 109 L 324 106 L 328 103 L 330 111 L 327 111 L 324 119 L 326 120 L 330 111 L 343 135 L 365 156 L 361 159 L 338 144 L 341 141 L 339 139 L 340 142 L 338 144 L 335 138 L 339 134 L 343 141 L 343 138 L 336 130 L 334 124 L 331 124 L 331 126 L 333 127 L 332 123 L 335 126 L 334 129 L 325 129 L 329 122 L 328 120 L 331 119 L 332 121 L 328 119 L 325 129 L 327 135 L 332 137 L 334 134 L 337 141 L 335 143 L 344 150 L 379 167 L 379 165 L 361 152 L 340 130 L 330 111 L 330 100 L 336 88 L 338 92 L 334 97 L 333 103 L 335 114 L 342 114 L 342 118 L 345 119 L 342 117 L 344 108 L 338 99 L 337 93 L 344 89 L 345 91 L 341 98 L 346 108 L 359 124 L 345 106 L 348 103 L 351 108 L 349 103 L 345 104 L 341 97 L 348 86 L 347 84 Z" stroke="black" fill="none"/>
<path d="M 284 365 L 275 364 L 269 367 L 262 381 L 262 394 L 269 422 L 272 450 L 294 505 L 307 518 L 320 522 L 322 534 L 312 535 L 275 531 L 198 519 L 195 517 L 197 510 L 194 518 L 194 510 L 192 517 L 173 514 L 171 512 L 173 504 L 179 503 L 183 498 L 183 493 L 178 488 L 173 488 L 169 491 L 168 497 L 171 502 L 167 512 L 153 509 L 151 507 L 153 500 L 159 497 L 163 490 L 162 486 L 157 482 L 151 483 L 148 486 L 148 494 L 154 498 L 151 508 L 220 523 L 275 531 L 322 535 L 320 521 L 306 517 L 294 504 L 272 450 L 269 422 L 262 394 L 262 381 L 270 367 L 275 364 L 281 364 L 285 367 Z" stroke="black" fill="none"/>
<path d="M 436 67 L 456 80 L 483 110 L 491 125 L 495 142 L 496 140 L 498 141 L 496 145 L 502 166 L 496 145 L 499 143 L 501 151 L 494 124 L 478 91 L 466 78 L 462 79 L 459 77 L 461 81 L 459 83 L 456 76 L 455 80 L 446 73 L 448 71 L 452 72 L 448 71 L 446 73 L 437 67 L 441 65 L 443 67 L 443 64 Z" stroke="black" fill="none"/>
<path d="M 610 506 L 607 509 L 616 518 L 619 541 L 599 584 L 594 584 L 595 592 L 592 595 L 589 590 L 585 590 L 588 587 L 585 588 L 585 591 L 592 596 L 596 588 L 594 585 L 596 583 L 599 585 L 619 541 L 618 524 L 615 519 L 619 520 L 624 530 L 624 542 L 612 571 L 613 576 L 609 580 L 610 584 L 608 585 L 607 581 L 607 585 L 612 589 L 609 591 L 609 596 L 609 592 L 612 589 L 610 582 L 613 580 L 612 577 L 627 554 L 634 533 L 639 532 L 641 534 L 639 551 L 637 550 L 636 536 L 638 559 L 635 558 L 637 561 L 638 552 L 642 551 L 643 548 L 640 544 L 641 534 L 644 533 L 646 535 L 644 545 L 645 540 L 647 541 L 645 533 L 640 532 L 643 525 L 645 524 L 647 526 L 644 527 L 647 527 L 644 524 L 638 528 L 635 525 L 633 529 L 630 529 L 629 526 L 635 532 L 630 537 L 632 540 L 628 542 L 627 534 L 629 532 L 632 534 L 627 532 L 625 524 L 619 516 L 621 511 L 619 516 Z" stroke="black" fill="none"/>
<path d="M 518 722 L 515 725 L 517 746 L 520 749 L 530 748 L 530 726 L 525 722 Z" stroke="black" fill="none"/>
<path d="M 656 764 L 651 772 L 652 778 L 656 782 L 648 790 L 650 791 L 659 784 L 664 786 L 669 792 L 670 803 L 672 803 L 671 788 L 663 782 L 668 775 L 667 768 L 664 764 Z" stroke="black" fill="none"/>
<path d="M 365 74 L 366 81 L 375 97 L 404 129 L 432 153 L 434 152 L 436 155 L 438 153 L 426 140 L 428 138 L 450 159 L 453 157 L 454 163 L 462 172 L 459 167 L 460 165 L 465 171 L 463 166 L 451 155 L 448 148 L 423 118 L 410 112 L 426 122 L 451 154 L 449 156 L 443 153 L 429 138 L 431 137 L 429 130 L 431 135 L 429 138 L 408 113 L 414 121 L 412 122 L 409 119 L 423 137 L 418 141 L 406 130 L 375 96 L 366 80 Z" stroke="black" fill="none"/>
<path d="M 267 177 L 266 187 L 263 190 L 261 199 L 264 207 L 273 217 L 285 222 L 268 207 L 265 198 L 267 192 L 270 197 L 273 196 L 275 200 L 304 211 L 315 211 L 315 209 L 304 208 L 289 202 L 274 190 L 268 180 L 271 186 L 268 189 L 266 187 Z" stroke="black" fill="none"/>
<path d="M 771 752 L 764 752 L 760 756 L 760 766 L 764 770 L 757 777 L 757 787 L 758 785 L 759 787 L 760 778 L 765 774 L 770 774 L 777 779 L 777 775 L 771 770 L 775 766 L 775 756 Z" stroke="black" fill="none"/>
<path d="M 681 232 L 716 250 L 705 244 L 707 242 L 713 247 L 708 242 L 686 231 L 680 233 L 680 240 L 676 240 L 705 261 L 734 294 L 716 271 L 694 252 L 695 250 L 704 256 L 736 292 L 722 273 L 705 256 L 686 244 L 695 250 L 693 252 L 678 241 L 680 240 L 684 243 L 680 240 L 685 240 L 714 260 L 718 259 L 699 244 L 681 236 Z" stroke="black" fill="none"/>
<path d="M 330 795 L 327 800 L 327 807 L 330 810 L 322 819 L 321 831 L 324 816 L 327 813 L 328 815 L 324 822 L 323 831 L 326 818 L 334 812 L 345 818 L 348 829 L 350 829 L 347 815 L 339 810 L 342 807 L 341 797 L 338 794 Z" stroke="black" fill="none"/>
<path d="M 692 721 L 689 724 L 690 735 L 683 742 L 682 752 L 685 754 L 686 743 L 694 738 L 698 738 L 703 742 L 704 752 L 707 752 L 706 741 L 700 735 L 702 724 L 699 721 Z" stroke="black" fill="none"/>
<path d="M 268 777 L 261 777 L 255 784 L 255 791 L 261 797 L 252 802 L 248 813 L 248 824 L 254 831 L 254 834 L 253 829 L 248 824 L 248 813 L 256 799 L 269 796 L 272 793 L 273 784 Z" stroke="black" fill="none"/>
<path d="M 590 602 L 585 606 L 587 609 L 581 614 L 580 620 L 569 638 L 557 646 L 560 648 L 553 655 L 551 651 L 554 650 L 548 640 L 546 640 L 546 644 L 549 648 L 546 648 L 543 653 L 535 646 L 544 648 L 534 645 L 542 654 L 537 653 L 531 647 L 532 652 L 533 649 L 536 652 L 534 657 L 530 658 L 534 667 L 528 673 L 530 679 L 527 676 L 525 677 L 523 668 L 522 672 L 525 673 L 525 677 L 522 679 L 518 669 L 519 673 L 514 683 L 514 689 L 512 689 L 511 680 L 512 675 L 515 674 L 513 670 L 516 665 L 515 657 L 517 656 L 519 660 L 518 656 L 515 655 L 516 665 L 514 668 L 512 661 L 514 669 L 511 669 L 512 679 L 509 687 L 510 683 L 512 683 L 512 690 L 514 690 L 516 680 L 516 689 L 535 683 L 530 683 L 531 677 L 529 672 L 532 669 L 535 673 L 534 676 L 533 674 L 534 677 L 539 669 L 541 672 L 540 667 L 544 671 L 543 674 L 545 675 L 539 675 L 535 681 L 540 680 L 554 669 L 555 663 L 554 668 L 545 675 L 543 673 L 545 670 L 542 669 L 544 664 L 542 668 L 538 663 L 540 666 L 535 673 L 532 669 L 535 669 L 531 658 L 533 658 L 537 667 L 533 658 L 535 653 L 543 655 L 545 650 L 551 646 L 553 658 L 546 653 L 545 658 L 548 660 L 540 661 L 548 661 L 551 658 L 552 661 L 547 666 L 552 661 L 553 655 L 560 651 L 559 646 L 569 639 L 575 627 L 581 622 L 581 614 L 585 610 L 588 611 L 586 610 L 588 608 L 585 607 Z" stroke="black" fill="none"/>
<path d="M 438 40 L 456 32 L 479 29 L 508 36 L 528 48 L 547 67 L 545 69 L 542 67 L 541 70 L 545 72 L 542 69 L 543 67 L 548 72 L 556 88 L 558 96 L 554 96 L 559 97 L 556 105 L 560 110 L 559 130 L 562 133 L 564 108 L 560 88 L 550 69 L 529 48 L 511 37 L 479 29 L 456 32 Z" stroke="black" fill="none"/>
<path d="M 661 213 L 708 223 L 728 235 L 730 234 L 729 231 L 715 222 L 699 216 L 667 211 Z" stroke="black" fill="none"/>
<path d="M 281 722 L 278 726 L 278 734 L 281 737 L 275 741 L 273 752 L 276 752 L 277 744 L 285 738 L 291 743 L 294 753 L 296 753 L 295 743 L 289 737 L 291 727 L 287 722 Z" stroke="black" fill="none"/>
<path d="M 660 320 L 662 324 L 661 320 L 667 326 L 673 327 L 672 329 L 666 329 L 663 326 L 659 327 L 663 335 L 670 339 L 670 343 L 667 346 L 665 344 L 666 341 L 662 339 L 662 341 L 666 342 L 664 345 L 666 346 L 666 360 L 674 369 L 678 370 L 680 364 L 691 354 L 691 351 L 686 351 L 689 355 L 681 363 L 680 361 L 673 367 L 671 362 L 673 361 L 671 361 L 671 365 L 666 359 L 665 350 L 667 348 L 674 350 L 674 342 L 676 341 L 679 347 L 676 350 L 677 353 L 685 355 L 676 350 L 678 348 L 684 350 L 676 341 L 679 338 L 682 342 L 681 344 L 686 345 L 687 349 L 690 348 L 690 341 L 688 338 L 682 338 L 687 335 L 683 327 L 686 336 L 678 338 L 671 336 L 670 339 L 665 330 L 669 328 L 675 329 L 676 335 L 678 335 L 679 329 L 675 326 L 679 329 L 677 333 L 673 326 L 665 324 L 668 322 L 665 323 Z" stroke="black" fill="none"/>
<path d="M 438 50 L 458 53 L 472 59 L 473 61 L 469 61 L 469 63 L 474 63 L 475 74 L 477 66 L 475 69 L 474 65 L 477 63 L 482 71 L 485 70 L 493 77 L 507 96 L 509 109 L 506 111 L 482 80 L 505 111 L 509 110 L 509 102 L 512 107 L 514 119 L 509 128 L 504 116 L 505 113 L 501 112 L 498 107 L 506 127 L 509 140 L 507 141 L 499 114 L 485 88 L 477 78 L 480 75 L 476 78 L 482 84 L 500 117 L 499 121 L 496 115 L 505 145 L 507 163 L 505 164 L 499 129 L 486 98 L 472 79 L 455 66 L 472 80 L 490 106 L 500 135 L 504 156 L 503 164 L 506 165 L 506 151 L 499 121 L 502 123 L 506 141 L 510 146 L 509 148 L 507 144 L 507 147 L 510 148 L 501 113 L 504 114 L 514 152 L 517 151 L 515 146 L 518 140 L 512 107 L 506 94 L 493 76 L 487 71 L 482 70 L 479 64 L 474 63 L 473 59 L 458 53 Z" stroke="black" fill="none"/>
<path d="M 863 769 L 859 772 L 858 783 L 862 788 L 870 788 L 874 784 L 874 773 L 870 769 Z" stroke="black" fill="none"/>
<path d="M 425 479 L 412 499 L 397 513 L 385 520 L 384 529 L 388 530 L 387 527 L 390 529 L 394 526 L 390 528 L 387 526 L 385 529 L 383 527 L 385 521 L 388 519 L 389 522 L 386 524 L 388 524 L 388 519 L 394 514 L 401 518 L 397 524 L 397 518 L 396 524 L 399 523 L 403 526 L 396 533 L 399 533 L 404 528 L 402 525 L 405 524 L 405 520 L 412 517 L 414 518 L 407 522 L 409 526 L 402 533 L 411 533 L 407 528 L 414 521 L 417 523 L 416 525 L 423 521 L 425 525 L 428 521 L 430 523 L 423 530 L 423 527 L 420 527 L 418 533 L 414 532 L 416 527 L 413 527 L 411 530 L 414 527 L 416 528 L 414 533 L 421 534 L 425 529 L 428 532 L 434 525 L 434 530 L 436 529 L 435 526 L 439 521 L 428 532 L 425 528 L 430 523 L 428 521 L 431 518 L 434 522 L 438 519 L 438 515 L 433 520 L 431 518 L 434 516 L 435 507 L 433 513 L 424 512 L 418 515 L 418 517 L 425 512 L 428 514 L 424 519 L 425 521 L 422 521 L 419 525 L 417 519 L 409 526 L 407 524 L 416 514 L 409 519 L 405 515 L 401 518 L 396 515 L 412 500 L 422 487 Z" stroke="black" fill="none"/>
<path d="M 153 759 L 149 764 L 149 774 L 153 778 L 160 778 L 164 774 L 164 763 L 160 759 Z" stroke="black" fill="none"/>
<path d="M 525 518 L 522 516 L 519 518 L 519 521 L 517 518 L 512 519 L 508 512 L 505 514 L 503 509 L 508 508 L 513 504 L 511 504 L 506 509 L 498 508 L 496 512 L 495 509 L 497 514 L 494 520 L 489 514 L 478 521 L 473 519 L 475 522 L 481 519 L 487 532 L 482 534 L 480 532 L 479 534 L 474 533 L 473 526 L 468 523 L 464 530 L 461 528 L 468 533 L 473 532 L 477 535 L 497 529 L 491 522 L 493 520 L 499 524 L 504 525 L 504 520 L 507 523 L 502 518 L 503 516 L 500 512 L 502 515 L 499 516 L 504 520 L 501 524 L 500 522 L 499 524 L 494 520 L 496 515 L 498 519 L 497 511 L 499 508 L 503 510 L 505 516 L 507 513 L 511 516 L 507 519 L 509 517 L 512 519 L 511 521 L 514 518 L 518 520 L 515 520 L 516 528 L 518 526 L 516 522 L 519 521 L 520 524 L 519 518 L 523 516 Z" stroke="black" fill="none"/>
<path d="M 427 756 L 422 757 L 418 761 L 418 770 L 422 774 L 416 779 L 414 785 L 415 798 L 414 785 L 422 774 L 429 774 L 437 781 L 439 793 L 436 794 L 439 794 L 437 780 L 429 774 L 433 770 L 433 760 Z" stroke="black" fill="none"/>
<path d="M 302 763 L 295 763 L 291 767 L 291 777 L 296 781 L 287 790 L 287 809 L 286 796 L 288 788 L 293 783 L 296 783 L 296 781 L 303 780 L 306 775 L 306 769 Z" stroke="black" fill="none"/>
<path d="M 553 581 L 551 582 L 546 579 L 518 600 L 496 608 L 495 605 L 495 608 L 505 606 L 524 597 L 540 584 L 542 585 L 525 600 L 503 609 L 500 613 L 464 613 L 453 610 L 440 603 L 435 598 L 437 596 L 440 598 L 440 596 L 435 598 L 421 582 L 419 582 L 419 585 L 437 605 L 452 614 L 466 618 L 467 621 L 461 627 L 457 622 L 455 623 L 448 619 L 439 609 L 443 615 L 452 622 L 456 622 L 463 629 L 465 627 L 463 629 L 462 626 L 465 623 L 467 624 L 469 618 L 447 611 L 428 595 L 428 591 L 442 605 L 459 612 L 500 613 L 516 609 L 525 604 L 535 595 L 515 609 L 505 612 L 503 610 L 524 601 L 538 591 L 544 581 L 548 580 L 544 584 L 549 580 L 551 582 L 522 609 L 497 618 L 480 621 L 470 620 L 469 624 L 471 620 L 474 620 L 477 624 L 477 630 L 475 629 L 478 632 L 475 636 L 476 638 L 478 638 L 481 632 L 482 638 L 482 624 L 484 625 L 484 622 L 482 623 L 483 629 L 481 632 L 479 623 L 480 634 L 477 638 L 475 636 L 478 632 L 476 621 L 486 619 L 488 621 L 486 622 L 487 628 L 491 631 L 491 638 L 488 638 L 488 632 L 484 632 L 484 638 L 487 632 L 488 639 L 491 639 L 490 633 L 492 631 L 494 636 L 496 636 L 496 632 L 499 629 L 505 629 L 523 618 L 538 605 L 538 602 L 536 601 L 535 604 L 536 601 L 538 604 L 522 618 L 504 629 L 496 631 L 495 636 L 489 629 L 492 628 L 492 622 L 489 623 L 489 619 L 509 615 L 521 610 L 537 598 Z" stroke="black" fill="none"/>
<path d="M 827 724 L 821 729 L 821 738 L 836 748 L 840 763 L 837 768 L 834 768 L 839 768 L 842 766 L 841 750 L 837 744 L 833 743 L 839 747 L 842 754 L 842 765 L 838 767 L 840 763 L 838 751 L 830 743 L 836 736 L 835 728 Z" stroke="black" fill="none"/>
<path d="M 537 690 L 536 688 L 530 690 L 512 706 L 497 695 L 495 698 L 509 710 L 514 711 Z" stroke="black" fill="none"/>
<path d="M 381 57 L 391 58 L 397 54 L 409 52 L 421 54 L 424 57 L 421 58 L 425 56 L 432 58 L 429 55 L 431 54 L 451 65 L 455 63 L 470 74 L 479 84 L 460 64 L 457 65 L 449 59 L 427 50 L 443 56 L 453 62 L 452 65 L 429 53 L 428 55 L 410 48 L 397 49 Z" stroke="black" fill="none"/>
<path d="M 519 37 L 524 38 L 533 45 L 531 46 L 521 40 L 536 50 L 549 63 L 565 87 L 568 88 L 567 84 L 573 78 L 568 68 L 569 76 L 570 73 L 573 78 L 567 84 L 561 72 L 543 51 L 524 38 Z" stroke="black" fill="none"/>
<path d="M 423 48 L 423 50 L 425 47 L 453 39 L 475 42 L 483 46 L 479 50 L 469 45 L 471 49 L 456 45 L 467 47 L 480 54 L 486 60 L 488 58 L 492 62 L 493 68 L 492 65 L 495 66 L 492 61 L 479 50 L 485 47 L 487 50 L 497 54 L 515 74 L 514 77 L 510 72 L 521 89 L 526 106 L 529 134 L 526 151 L 524 124 L 518 111 L 525 130 L 525 152 L 527 152 L 529 137 L 527 112 L 521 89 L 514 72 L 508 64 L 511 64 L 508 64 L 498 54 L 488 50 L 481 44 L 483 42 L 495 50 L 498 50 L 497 47 L 500 46 L 502 48 L 498 52 L 502 55 L 500 51 L 502 48 L 505 49 L 525 66 L 523 69 L 526 73 L 528 73 L 526 72 L 528 69 L 533 76 L 536 76 L 544 91 L 550 113 L 550 156 L 547 165 L 544 164 L 548 150 L 548 123 L 543 100 L 548 123 L 548 149 L 544 164 L 546 168 L 544 169 L 543 166 L 543 169 L 546 169 L 551 148 L 550 113 L 540 81 L 536 74 L 535 76 L 532 74 L 531 69 L 528 69 L 506 49 L 488 42 L 479 44 L 453 39 Z" stroke="black" fill="none"/>
<path d="M 777 624 L 770 623 L 766 627 L 768 636 L 763 642 L 762 651 L 770 643 L 774 644 L 777 650 L 779 650 L 778 642 L 772 640 L 772 635 L 769 632 L 769 629 L 773 626 L 776 629 L 775 637 L 777 636 L 778 639 L 779 628 Z" stroke="black" fill="none"/>
<path d="M 859 722 L 854 729 L 855 736 L 859 739 L 864 739 L 869 735 L 869 727 L 865 722 Z" stroke="black" fill="none"/>
<path d="M 582 858 L 566 867 L 568 874 L 574 880 L 572 881 L 565 872 L 570 880 L 574 881 L 572 877 L 577 876 L 578 881 L 582 867 Z" stroke="black" fill="none"/>
<path d="M 570 829 L 566 835 L 570 847 L 575 849 L 580 846 L 577 831 Z" stroke="black" fill="none"/>
<path d="M 281 177 L 287 186 L 302 198 L 318 204 L 330 205 L 328 202 L 323 202 L 302 193 L 290 183 L 291 185 L 288 186 Z" stroke="black" fill="none"/>
<path d="M 591 323 L 541 347 L 523 353 L 519 352 L 513 356 L 510 356 L 507 352 L 503 339 L 505 330 L 506 338 L 506 330 L 504 330 L 503 339 L 509 356 L 501 366 L 501 372 L 494 389 L 491 424 L 492 444 L 490 445 L 490 454 L 493 458 L 491 463 L 496 471 L 494 473 L 495 479 L 494 473 L 496 471 L 499 477 L 497 487 L 483 498 L 472 502 L 459 498 L 448 487 L 448 475 L 453 467 L 451 463 L 454 462 L 451 462 L 445 476 L 445 487 L 450 496 L 449 498 L 442 496 L 437 497 L 435 500 L 429 491 L 431 489 L 440 492 L 444 491 L 440 492 L 432 489 L 430 481 L 437 470 L 445 470 L 440 469 L 434 473 L 432 471 L 435 468 L 445 467 L 436 467 L 429 475 L 426 493 L 433 504 L 443 506 L 440 506 L 440 503 L 438 505 L 434 504 L 426 493 L 427 481 L 432 472 L 434 473 L 430 481 L 431 489 L 429 491 L 432 498 L 435 500 L 438 497 L 446 497 L 461 509 L 470 513 L 480 513 L 503 497 L 513 496 L 519 499 L 498 504 L 483 514 L 473 517 L 463 514 L 453 505 L 438 500 L 452 505 L 463 514 L 463 517 L 463 514 L 473 517 L 480 516 L 498 504 L 519 500 L 518 497 L 513 496 L 503 497 L 479 513 L 470 513 L 449 498 L 450 496 L 445 487 L 446 472 L 451 464 L 453 466 L 448 475 L 448 488 L 455 496 L 468 502 L 480 498 L 483 499 L 482 501 L 497 488 L 499 477 L 491 461 L 494 457 L 500 461 L 499 463 L 497 461 L 494 462 L 503 474 L 494 462 L 500 463 L 497 457 L 502 456 L 502 453 L 497 453 L 496 450 L 501 449 L 496 449 L 496 452 L 493 453 L 501 453 L 501 456 L 493 458 L 490 453 L 490 446 L 492 444 L 494 446 L 492 449 L 495 444 L 491 442 L 494 389 L 500 373 L 512 359 L 503 369 L 501 366 L 509 356 L 517 355 L 520 352 L 522 354 L 518 360 L 517 357 L 516 363 L 519 359 L 522 363 L 519 358 L 521 356 L 522 358 L 523 356 L 521 355 L 524 352 L 533 351 L 524 362 L 536 348 Z" stroke="black" fill="none"/>
<path d="M 691 357 L 687 359 L 687 362 L 690 364 L 684 367 L 682 365 L 683 368 L 679 372 L 683 375 L 681 378 L 683 383 L 681 385 L 678 378 L 670 385 L 664 381 L 669 379 L 664 379 L 665 383 L 669 383 L 669 390 L 677 399 L 678 404 L 675 407 L 670 406 L 670 403 L 668 406 L 643 405 L 643 407 L 644 405 L 679 407 L 678 409 L 657 409 L 680 408 L 677 405 L 678 400 L 683 401 L 682 396 L 685 393 L 688 395 L 685 397 L 688 394 L 685 393 L 675 397 L 669 388 L 677 379 L 679 380 L 678 384 L 672 387 L 672 389 L 676 390 L 676 393 L 679 392 L 681 387 L 688 387 L 686 383 L 688 380 L 684 383 L 682 379 L 684 379 L 683 376 L 685 374 L 687 378 L 690 375 L 689 370 L 691 369 L 686 369 L 685 367 L 690 365 L 687 360 Z" stroke="black" fill="none"/>
<path d="M 327 322 L 315 349 L 314 359 L 320 358 L 316 362 L 320 361 L 319 357 L 332 339 L 340 332 L 359 324 L 376 327 L 400 339 L 399 341 L 387 340 L 368 343 L 352 352 L 342 363 L 336 379 L 336 393 L 338 373 L 350 354 L 368 343 L 387 340 L 405 343 L 400 341 L 403 339 L 422 349 L 422 352 L 419 350 L 431 360 L 442 374 L 440 378 L 446 396 L 441 380 L 443 378 L 442 371 L 439 367 L 442 371 L 441 373 L 433 362 L 438 361 L 433 362 L 423 351 L 426 350 L 441 356 L 448 365 L 444 359 L 453 356 L 455 338 L 452 346 L 453 340 L 455 340 L 453 355 L 444 359 L 435 353 L 423 350 L 413 343 L 376 327 L 359 324 L 339 332 L 322 351 L 315 352 L 319 338 L 327 323 L 336 311 L 354 294 L 387 302 L 399 310 L 401 307 L 419 315 L 425 321 L 426 318 L 429 318 L 439 329 L 433 320 L 425 319 L 406 309 L 365 295 L 358 296 L 353 294 L 337 309 Z" stroke="black" fill="none"/>
<path d="M 194 493 L 190 496 L 189 502 L 192 507 L 199 508 L 204 504 L 204 497 L 199 493 Z" stroke="black" fill="none"/>
<path d="M 876 482 L 870 486 L 869 491 L 873 497 L 878 498 L 884 494 L 884 487 Z" stroke="black" fill="none"/>
<path d="M 310 237 L 293 244 L 282 254 L 275 266 L 273 278 L 285 256 L 291 250 L 310 239 Z" stroke="black" fill="none"/>
<path d="M 318 277 L 289 312 L 288 316 L 294 305 L 318 279 L 316 285 L 291 314 L 288 323 L 289 325 L 291 322 L 293 324 L 289 336 L 290 329 L 300 312 L 316 292 L 318 293 L 319 287 L 304 302 L 290 323 L 288 321 L 295 308 L 319 283 Z" stroke="black" fill="none"/>
<path d="M 427 67 L 461 94 L 463 91 L 482 118 L 480 119 L 470 106 L 479 119 L 482 118 L 458 85 L 446 76 Z" stroke="black" fill="none"/>
<path d="M 503 723 L 501 728 L 505 731 L 505 748 L 513 749 L 514 745 L 510 739 L 508 723 Z" stroke="black" fill="none"/>
<path d="M 842 635 L 840 645 L 842 648 L 849 645 L 850 648 L 853 645 L 853 637 L 850 634 Z" stroke="black" fill="none"/>
<path d="M 711 241 L 719 245 L 742 272 L 740 274 L 720 252 L 721 250 L 714 245 L 733 265 L 746 283 L 752 308 L 750 308 L 752 316 L 755 305 L 748 280 L 739 267 L 723 252 L 723 248 Z" stroke="black" fill="none"/>
<path d="M 601 195 L 607 198 L 606 200 L 602 198 L 600 200 L 602 205 L 625 208 L 626 204 L 631 202 L 632 199 L 641 203 L 662 225 L 663 231 L 667 236 L 669 242 L 666 260 L 673 269 L 671 270 L 667 266 L 673 270 L 666 260 L 669 242 L 691 258 L 690 261 L 695 266 L 691 260 L 698 263 L 711 279 L 709 280 L 700 271 L 690 266 L 685 261 L 686 258 L 688 260 L 676 252 L 670 245 L 675 252 L 685 258 L 683 261 L 699 271 L 707 279 L 714 281 L 699 263 L 667 239 L 668 236 L 662 228 L 663 225 L 675 234 L 673 236 L 669 233 L 672 236 L 675 236 L 675 233 L 671 232 L 668 227 L 657 220 L 660 218 L 659 215 L 655 213 L 660 217 L 656 219 L 642 203 L 635 201 L 623 191 L 608 193 L 622 191 L 632 199 L 626 203 L 624 208 L 617 205 L 616 207 L 603 205 L 600 202 L 602 199 L 605 203 L 606 200 L 609 203 L 615 202 L 609 202 L 607 197 Z" stroke="black" fill="none"/>
<path d="M 693 779 L 690 782 L 689 788 L 693 794 L 696 794 L 700 791 L 701 784 L 699 780 Z" stroke="black" fill="none"/>
<path d="M 365 722 L 362 725 L 362 733 L 371 736 L 374 727 L 370 722 Z" stroke="black" fill="none"/>
<path d="M 293 662 L 289 670 L 291 675 L 295 675 L 298 672 L 297 676 L 302 672 L 302 665 L 299 662 Z" stroke="black" fill="none"/>
<path d="M 304 266 L 297 270 L 284 284 L 279 294 L 280 301 L 279 299 L 284 290 L 305 268 Z" stroke="black" fill="none"/>
<path d="M 582 595 L 580 595 L 582 602 L 580 605 L 573 598 L 570 601 L 576 607 L 575 609 L 572 608 L 576 614 L 575 616 L 565 610 L 571 621 L 568 624 L 567 621 L 561 619 L 565 627 L 554 623 L 562 633 L 559 634 L 554 630 L 552 631 L 555 636 L 554 639 L 549 635 L 552 643 L 549 636 L 551 635 L 555 639 L 553 631 L 559 635 L 562 634 L 562 631 L 556 626 L 558 624 L 561 627 L 566 626 L 570 631 L 566 626 L 574 618 L 575 620 L 574 617 L 576 615 L 578 616 L 572 609 L 576 609 L 577 604 L 580 606 L 578 609 L 581 608 L 582 601 L 580 596 L 583 599 Z" stroke="black" fill="none"/>
<path d="M 271 169 L 269 177 L 282 194 L 286 197 L 288 195 L 304 203 L 303 205 L 307 204 L 310 207 L 308 204 L 289 196 L 288 192 L 281 186 L 278 177 L 276 177 L 281 184 L 279 188 L 277 186 L 278 183 L 277 185 L 273 179 L 274 170 Z" stroke="black" fill="none"/>
<path d="M 369 197 L 388 198 L 389 202 L 392 200 L 390 201 L 389 197 L 369 197 L 350 207 L 326 240 L 320 253 L 322 294 L 314 301 L 313 299 L 314 301 L 302 313 L 317 298 L 322 296 L 322 304 L 310 331 L 307 343 L 308 396 L 306 432 L 332 555 L 340 581 L 353 599 L 397 638 L 398 635 L 395 629 L 393 630 L 397 633 L 397 638 L 389 629 L 390 626 L 388 624 L 385 626 L 380 621 L 382 619 L 386 623 L 383 620 L 383 614 L 380 614 L 380 618 L 381 614 L 384 615 L 380 621 L 372 615 L 374 613 L 378 617 L 378 613 L 375 614 L 372 608 L 370 608 L 369 598 L 369 606 L 374 613 L 372 615 L 368 608 L 366 610 L 353 598 L 338 576 L 306 432 L 308 396 L 307 343 L 310 331 L 322 304 L 320 253 L 326 241 L 350 208 Z" stroke="black" fill="none"/>
<path d="M 435 687 L 428 693 L 430 695 L 428 697 L 432 694 L 428 693 L 436 687 L 439 689 L 434 693 L 439 689 L 442 690 L 425 702 L 422 696 L 426 694 L 421 696 L 420 700 L 426 716 L 438 723 L 441 722 L 436 720 L 427 711 L 424 704 L 442 691 L 439 687 Z" stroke="black" fill="none"/>
<path d="M 730 771 L 727 774 L 727 782 L 730 785 L 734 785 L 737 782 L 737 774 L 735 771 Z" stroke="black" fill="none"/>
<path d="M 114 765 L 109 765 L 104 769 L 103 779 L 106 784 L 108 784 L 106 772 L 110 768 L 116 771 L 115 782 L 119 779 L 119 770 Z" stroke="black" fill="none"/>
<path d="M 382 61 L 382 63 L 388 64 L 405 74 L 418 88 L 416 90 L 404 78 L 422 98 L 424 96 L 426 98 L 426 102 L 436 111 L 426 102 L 424 94 L 406 74 L 382 62 L 396 61 L 422 69 L 422 72 L 424 70 L 425 73 L 426 71 L 432 75 L 431 78 L 432 75 L 453 90 L 470 111 L 489 143 L 488 147 L 480 133 L 478 136 L 476 135 L 480 137 L 480 141 L 483 144 L 480 147 L 480 151 L 483 144 L 480 140 L 480 133 L 486 146 L 489 147 L 489 142 L 481 126 L 456 92 L 444 82 L 418 67 L 396 61 Z" stroke="black" fill="none"/>
<path d="M 197 780 L 194 786 L 195 791 L 202 793 L 205 790 L 205 782 Z" stroke="black" fill="none"/>
<path d="M 333 169 L 342 176 L 360 183 L 370 184 L 339 169 Z" stroke="black" fill="none"/>
<path d="M 571 797 L 585 848 L 587 848 L 590 844 L 588 837 L 590 843 L 586 848 L 571 802 L 572 798 L 574 800 L 586 842 L 582 829 L 584 821 L 577 796 Z" stroke="black" fill="none"/>
<path d="M 241 751 L 236 758 L 238 770 L 240 769 L 238 761 L 245 753 L 251 758 L 251 768 L 253 768 L 253 755 L 249 751 Z" stroke="black" fill="none"/>
<path d="M 570 309 L 568 308 L 556 317 L 542 333 L 544 335 Z" stroke="black" fill="none"/>
<path d="M 206 737 L 199 737 L 195 741 L 194 749 L 197 754 L 200 753 L 197 745 L 202 739 L 207 744 L 206 751 L 209 751 L 210 743 Z" stroke="black" fill="none"/>
<path d="M 672 286 L 688 300 L 676 290 L 678 289 L 689 297 L 694 304 L 692 305 L 676 293 L 673 293 L 673 298 L 677 298 L 681 303 L 699 310 L 699 307 L 693 305 L 695 304 L 693 301 L 697 303 Z" stroke="black" fill="none"/>
<path d="M 797 777 L 793 778 L 791 783 L 792 788 L 796 791 L 801 788 L 802 784 L 801 779 Z" stroke="black" fill="none"/>
<path d="M 333 752 L 330 756 L 331 767 L 334 767 L 332 761 L 337 754 L 341 757 L 342 761 L 339 764 L 342 767 L 344 755 L 339 751 Z" stroke="black" fill="none"/>
<path d="M 325 724 L 321 729 L 321 736 L 324 738 L 323 733 L 328 726 L 333 732 L 331 735 L 328 735 L 330 739 L 335 736 L 336 731 L 332 724 Z" stroke="black" fill="none"/>
<path d="M 327 454 L 330 454 L 346 438 L 347 434 L 360 447 L 377 453 L 411 451 L 423 444 L 431 436 L 410 451 L 377 453 L 358 445 L 344 430 L 342 422 L 347 434 L 338 439 L 330 447 Z" stroke="black" fill="none"/>
<path d="M 731 181 L 730 184 L 742 192 L 756 209 L 757 205 L 746 191 L 738 186 L 736 182 L 733 181 L 736 184 L 732 185 Z" stroke="black" fill="none"/>
<path d="M 587 42 L 614 53 L 626 63 L 623 64 L 611 55 L 601 53 L 595 48 L 596 51 L 608 54 L 627 67 L 626 63 L 630 67 L 628 69 L 630 68 L 635 73 L 642 88 L 642 104 L 642 88 L 630 66 L 615 53 L 600 46 L 584 42 L 599 59 L 612 84 L 617 108 L 616 136 L 610 152 L 607 154 L 605 152 L 611 129 L 611 107 L 609 140 L 605 150 L 607 156 L 595 177 L 570 198 L 564 201 L 557 197 L 549 200 L 557 197 L 564 201 L 577 194 L 586 186 L 587 188 L 583 192 L 586 190 L 586 186 L 594 179 L 596 173 L 610 154 L 616 136 L 617 108 L 613 87 L 601 61 L 590 47 L 584 43 Z" stroke="black" fill="none"/>
<path d="M 283 628 L 278 632 L 279 643 L 282 641 L 280 636 L 286 631 L 289 635 L 287 642 L 289 644 L 292 639 L 291 631 Z" stroke="black" fill="none"/>
<path d="M 231 768 L 226 767 L 221 770 L 219 777 L 222 783 L 225 783 L 222 775 L 226 770 L 231 774 L 231 781 L 234 781 L 234 773 Z" stroke="black" fill="none"/>
<path d="M 534 474 L 561 504 L 582 515 L 589 523 L 589 521 L 583 515 L 562 504 L 541 483 L 543 479 L 557 495 L 563 495 L 571 502 L 604 516 L 610 525 L 609 528 L 610 524 L 605 516 L 573 503 L 564 495 L 558 495 L 547 484 L 546 480 Z" stroke="black" fill="none"/>
<path d="M 755 653 L 751 658 L 752 667 L 755 668 L 754 659 L 759 656 L 763 660 L 761 667 L 764 668 L 766 663 L 765 657 L 760 653 Z" stroke="black" fill="none"/>
<path d="M 367 654 L 363 660 L 364 667 L 368 669 L 366 661 L 369 657 L 372 657 L 375 660 L 373 664 L 375 668 L 377 657 L 374 654 Z" stroke="black" fill="none"/>
<path d="M 476 867 L 474 866 L 462 873 L 450 872 L 449 875 L 453 877 L 464 876 L 473 872 Z" stroke="black" fill="none"/>
<path d="M 475 860 L 471 860 L 463 865 L 446 865 L 447 870 L 461 869 L 473 864 Z" stroke="black" fill="none"/>
<path d="M 765 721 L 757 719 L 752 723 L 750 729 L 752 737 L 753 734 L 754 737 L 754 726 L 759 722 L 765 727 L 764 733 L 767 733 L 768 729 Z" stroke="black" fill="none"/>
<path d="M 877 662 L 874 666 L 874 674 L 877 675 L 876 671 L 879 665 L 884 665 L 887 670 L 884 674 L 887 675 L 889 673 L 888 664 L 886 662 Z" stroke="black" fill="none"/>
<path d="M 598 541 L 594 541 L 592 534 L 589 534 L 563 558 L 538 576 L 514 588 L 492 593 L 472 593 L 449 587 L 420 568 L 392 539 L 387 539 L 387 541 L 388 539 L 392 541 L 388 543 L 386 550 L 388 544 L 392 541 L 425 573 L 449 587 L 472 593 L 492 593 L 514 588 L 539 576 L 564 558 L 590 534 L 594 541 Z" stroke="black" fill="none"/>
<path d="M 736 740 L 732 746 L 733 753 L 736 753 L 735 747 L 739 742 L 745 746 L 743 752 L 746 753 L 748 749 L 747 743 L 742 739 Z" stroke="black" fill="none"/>
<path d="M 224 723 L 220 729 L 222 738 L 225 736 L 223 730 L 226 726 L 231 728 L 231 737 L 233 737 L 235 731 L 233 725 Z" stroke="black" fill="none"/>
<path d="M 660 662 L 657 665 L 656 673 L 658 676 L 661 676 L 659 668 L 664 665 L 667 668 L 665 676 L 667 676 L 669 666 L 666 662 Z" stroke="black" fill="none"/>
<path d="M 242 653 L 236 654 L 232 660 L 235 670 L 238 667 L 235 661 L 239 656 L 243 658 L 244 665 L 247 663 L 246 656 Z" stroke="black" fill="none"/>
<path d="M 316 242 L 292 252 L 287 260 L 290 260 L 302 250 L 294 255 L 293 252 L 304 246 L 307 247 L 314 242 L 315 244 L 300 258 L 303 258 L 291 270 L 288 268 L 301 253 L 294 259 L 284 272 L 285 276 L 312 252 L 303 258 L 302 255 L 315 245 Z" stroke="black" fill="none"/>
<path d="M 504 754 L 505 757 L 517 766 L 533 771 L 533 769 L 518 763 L 507 754 Z" stroke="black" fill="none"/>
<path d="M 138 632 L 131 632 L 127 636 L 128 647 L 131 644 L 129 640 L 134 634 L 138 637 L 137 644 L 140 644 L 141 635 Z" stroke="black" fill="none"/>
<path d="M 712 625 L 707 624 L 703 626 L 702 631 L 704 635 L 707 636 L 712 633 Z" stroke="black" fill="none"/>
<path d="M 111 620 L 107 626 L 108 633 L 111 634 L 110 627 L 113 623 L 118 626 L 117 633 L 120 633 L 120 623 L 117 620 Z" stroke="black" fill="none"/>
<path d="M 205 617 L 202 622 L 203 628 L 206 629 L 205 622 L 210 619 L 213 622 L 211 628 L 214 629 L 216 625 L 215 619 L 212 616 Z" stroke="black" fill="none"/>
<path d="M 111 724 L 107 730 L 108 737 L 111 737 L 110 730 L 114 726 L 119 731 L 118 739 L 120 739 L 122 734 L 120 726 Z" stroke="black" fill="none"/>
<path d="M 662 356 L 657 334 L 646 315 L 635 303 L 617 289 L 599 291 L 584 296 L 573 303 L 564 304 L 536 318 L 531 317 L 518 325 L 513 333 L 512 331 L 513 334 L 510 341 L 517 327 L 531 317 L 535 318 L 534 321 L 542 314 L 567 303 L 574 303 L 587 295 L 603 290 L 613 291 L 616 289 L 643 312 L 658 337 L 662 350 L 662 355 L 660 356 L 650 343 L 645 340 L 644 336 L 631 330 L 643 336 L 659 356 Z" stroke="black" fill="none"/>
<path d="M 264 663 L 258 662 L 254 665 L 253 674 L 255 677 L 257 677 L 256 669 L 259 665 L 264 669 L 263 674 L 266 674 L 267 669 Z" stroke="black" fill="none"/>
<path d="M 361 64 L 353 75 L 352 86 L 353 75 L 363 65 L 358 72 L 355 84 L 357 99 L 360 103 L 357 105 L 362 110 L 360 112 L 354 105 L 352 93 L 349 91 L 351 88 L 349 92 L 352 94 L 354 105 L 358 111 L 362 113 L 362 110 L 365 116 L 382 134 L 398 145 L 406 154 L 391 146 L 381 144 L 367 131 L 354 112 L 356 111 L 354 113 L 368 133 L 380 144 L 393 147 L 400 153 L 407 153 L 387 137 L 386 134 L 384 135 L 361 108 L 355 88 L 358 73 L 363 69 L 364 65 Z" stroke="black" fill="none"/>
<path d="M 314 643 L 314 651 L 318 650 L 317 646 L 320 643 L 322 651 L 328 654 L 323 641 L 318 640 Z" stroke="black" fill="none"/>
<path d="M 895 649 L 892 656 L 894 663 L 898 662 L 895 659 L 895 655 L 899 651 L 904 655 L 903 662 L 905 662 L 907 658 L 906 652 L 903 649 Z" stroke="black" fill="none"/>
<path d="M 887 749 L 882 757 L 884 764 L 888 764 L 885 757 L 889 752 L 895 757 L 894 764 L 895 758 L 898 758 L 896 764 L 898 759 L 897 753 L 893 749 Z" stroke="black" fill="none"/>
<path d="M 129 608 L 130 618 L 133 616 L 131 611 L 135 607 L 140 610 L 140 615 L 143 615 L 144 611 L 141 605 L 133 604 Z" stroke="black" fill="none"/>
<path d="M 558 832 L 556 836 L 560 841 L 561 851 L 566 851 L 567 848 L 562 834 Z" stroke="black" fill="none"/>
<path d="M 393 159 L 393 162 L 410 181 L 416 183 L 422 192 L 428 194 L 420 183 L 412 182 L 393 161 L 394 159 L 410 172 L 408 174 L 410 175 L 408 174 L 410 172 L 412 174 L 412 179 L 413 177 L 420 181 L 413 177 L 412 173 L 405 166 Z" stroke="black" fill="none"/>
<path d="M 666 432 L 665 435 L 669 440 L 669 450 L 667 452 L 663 446 L 661 446 L 661 450 L 669 463 L 665 466 L 669 472 L 661 480 L 659 479 L 661 477 L 660 474 L 665 469 L 657 476 L 659 484 L 660 480 L 663 482 L 660 487 L 655 485 L 654 483 L 656 482 L 654 482 L 653 484 L 657 486 L 655 491 L 653 486 L 649 486 L 651 492 L 649 487 L 651 485 L 655 491 L 650 495 L 652 502 L 650 496 L 654 494 L 658 486 L 661 488 L 661 491 L 662 480 L 669 473 L 669 469 L 665 466 L 669 465 L 661 447 L 664 448 L 670 460 L 667 453 L 670 449 L 668 445 L 671 444 L 674 447 L 675 451 L 671 451 L 670 454 L 671 457 L 675 458 L 671 463 L 675 457 L 672 457 L 670 454 L 673 451 L 675 452 L 674 447 L 680 439 L 684 439 L 677 441 L 670 437 L 674 440 L 676 445 L 674 447 L 672 442 L 671 444 L 668 443 L 669 440 L 665 434 Z" stroke="black" fill="none"/>
<path d="M 342 129 L 348 132 L 353 137 L 351 139 L 347 135 L 366 153 L 383 165 L 384 163 L 369 151 L 372 150 L 390 165 L 377 153 L 367 148 L 381 161 L 380 163 L 352 139 L 353 137 L 377 150 L 391 163 L 378 150 L 358 140 L 345 129 Z" stroke="black" fill="none"/>
<path d="M 89 586 L 184 603 L 315 615 L 321 621 L 320 627 L 318 627 L 318 621 L 315 618 L 311 620 L 311 626 L 308 626 L 308 620 L 311 617 L 308 620 L 308 627 L 311 627 L 311 621 L 315 618 L 318 622 L 318 628 L 320 628 L 321 621 L 318 617 L 319 615 L 367 618 L 403 651 L 422 675 L 433 685 L 424 692 L 208 686 L 90 680 L 208 686 L 424 692 L 434 684 L 422 674 L 403 650 L 368 618 L 227 608 L 144 597 Z" stroke="black" fill="none"/>
<path d="M 801 622 L 802 632 L 804 632 L 803 627 L 806 622 L 811 625 L 811 630 L 814 630 L 812 620 L 805 619 Z" stroke="black" fill="none"/>
<path d="M 937 700 L 777 707 L 632 710 L 640 721 L 642 751 L 639 784 L 644 803 L 661 803 L 664 806 L 665 836 L 742 836 L 743 802 L 743 833 L 741 836 L 734 835 L 734 827 L 731 827 L 730 836 L 724 835 L 722 822 L 723 802 L 720 808 L 720 819 L 717 817 L 719 801 L 724 794 L 730 791 L 740 793 L 745 798 L 749 810 L 749 817 L 746 819 L 745 804 L 746 821 L 749 817 L 746 799 L 741 793 L 732 790 L 740 783 L 740 773 L 735 768 L 729 768 L 724 774 L 725 785 L 729 787 L 724 782 L 724 774 L 730 768 L 734 768 L 739 772 L 740 782 L 736 787 L 731 788 L 731 791 L 723 794 L 718 804 L 717 817 L 719 820 L 721 803 L 724 804 L 722 814 L 724 835 L 721 835 L 720 824 L 715 819 L 714 813 L 718 797 L 727 789 L 720 793 L 715 806 L 714 815 L 715 820 L 720 825 L 720 836 L 666 836 L 664 832 L 664 805 L 662 803 L 645 803 L 639 784 L 642 751 L 639 718 L 632 710 L 777 707 Z" stroke="black" fill="none"/>
<path d="M 860 612 L 857 619 L 858 622 L 861 623 L 860 619 L 865 614 L 867 617 L 866 622 L 869 624 L 869 613 L 866 611 Z" stroke="black" fill="none"/>
<path d="M 418 703 L 404 711 L 397 718 L 374 755 L 355 775 L 353 787 L 353 780 L 356 777 L 358 781 L 356 791 L 358 796 L 356 792 L 358 780 L 355 776 L 374 756 L 397 719 L 405 711 L 417 704 L 421 715 L 416 720 L 421 715 L 426 720 L 402 744 L 413 735 L 421 723 L 426 722 L 426 719 L 419 710 Z" stroke="black" fill="none"/>
<path d="M 151 607 L 148 611 L 148 618 L 151 618 L 151 612 L 155 609 L 158 612 L 157 619 L 159 619 L 161 615 L 160 609 L 156 606 Z" stroke="black" fill="none"/>
<path d="M 278 232 L 272 234 L 268 241 L 268 254 L 271 252 L 271 242 Z" stroke="black" fill="none"/>
<path d="M 549 51 L 549 54 L 568 80 L 564 73 L 565 71 L 567 73 L 557 57 Z" stroke="black" fill="none"/>
<path d="M 899 609 L 900 619 L 902 619 L 901 612 L 904 609 L 909 612 L 909 616 L 912 616 L 912 611 L 908 606 L 902 606 Z" stroke="black" fill="none"/>
<path d="M 604 56 L 614 69 L 618 69 L 621 75 L 619 76 L 621 81 L 618 80 L 621 85 L 624 106 L 621 138 L 624 106 L 620 82 L 623 84 L 627 98 L 625 138 L 618 151 L 617 159 L 614 161 L 614 163 L 617 163 L 618 161 L 614 162 L 620 158 L 628 138 L 633 116 L 636 115 L 639 126 L 637 136 L 633 140 L 636 139 L 638 132 L 639 107 L 637 102 L 632 99 L 639 107 L 639 118 L 634 114 L 627 141 L 620 157 L 616 158 L 627 132 L 625 136 L 624 132 L 627 125 L 628 128 L 630 115 L 630 98 L 627 88 L 630 98 L 629 122 L 626 124 L 627 98 L 620 77 L 623 78 L 626 86 L 621 74 L 629 72 L 633 79 L 630 80 L 627 77 L 634 93 L 638 96 L 638 99 L 638 95 L 634 92 L 630 80 L 633 79 L 634 85 L 636 81 L 634 76 L 627 71 L 626 74 L 623 74 L 625 68 L 621 74 L 618 68 L 613 67 L 612 65 L 615 64 L 612 64 Z" stroke="black" fill="none"/>
<path d="M 725 220 L 725 217 L 705 209 L 721 215 L 725 218 L 724 220 L 705 212 L 693 212 L 694 207 L 701 206 L 715 209 L 715 206 L 711 206 L 708 203 L 705 205 L 685 204 L 694 205 L 685 206 L 692 206 L 691 211 L 659 208 L 680 209 L 697 213 L 705 212 Z" stroke="black" fill="none"/>
<path d="M 453 734 L 450 738 L 451 745 L 454 745 L 453 739 L 456 736 L 459 739 L 458 745 L 460 745 L 462 742 L 461 736 L 457 733 Z" stroke="black" fill="none"/>
<path d="M 276 368 L 283 369 L 291 376 L 301 412 L 291 375 L 281 368 L 273 369 L 268 375 L 266 396 L 273 423 L 277 456 L 299 504 L 309 514 L 318 516 L 310 476 L 293 459 L 290 451 L 291 438 L 300 421 L 286 398 L 300 422 L 299 425 L 296 425 L 287 409 L 287 405 L 288 412 L 297 426 L 291 438 L 290 451 L 294 461 L 311 479 L 318 515 L 310 514 L 299 503 L 277 456 L 273 423 L 266 396 L 267 378 Z" stroke="black" fill="none"/>
<path d="M 816 794 L 823 788 L 825 796 L 827 796 L 828 789 L 833 792 L 830 789 L 834 790 L 836 787 L 833 789 L 822 784 L 816 788 Z" stroke="black" fill="none"/>
<path d="M 683 225 L 683 227 L 706 235 L 706 232 L 698 228 Z" stroke="black" fill="none"/>
<path d="M 828 675 L 829 680 L 832 680 L 831 676 L 835 672 L 838 678 L 841 679 L 839 670 L 833 669 Z" stroke="black" fill="none"/>
<path d="M 473 919 L 470 919 L 462 926 L 459 924 L 457 927 L 464 931 Z" stroke="black" fill="none"/>
<path d="M 621 706 L 610 725 L 617 730 L 617 745 L 623 759 L 625 777 L 612 792 L 610 809 L 617 795 L 620 797 L 616 803 L 619 803 L 618 799 L 620 797 L 622 806 L 620 806 L 621 810 L 617 817 L 621 810 L 622 800 L 619 795 L 616 795 L 613 806 L 610 808 L 612 793 L 623 782 L 625 777 L 625 767 L 617 745 L 617 729 L 610 724 L 617 716 L 617 724 L 621 720 L 623 722 L 621 726 L 623 755 L 621 744 L 621 726 L 623 722 L 621 720 L 617 722 L 617 715 L 621 706 L 637 722 L 638 757 L 636 784 L 641 803 L 638 805 L 634 815 L 633 812 L 636 803 L 634 803 L 628 817 L 626 815 L 630 803 L 627 802 L 624 813 L 618 820 L 615 819 L 617 821 L 621 820 L 628 802 L 630 804 L 626 819 L 629 817 L 635 803 L 633 816 L 640 804 L 642 806 L 636 784 L 638 757 L 637 722 Z" stroke="black" fill="none"/>
<path d="M 117 648 L 114 652 L 115 659 L 118 659 L 117 653 L 119 651 L 123 654 L 123 659 L 125 659 L 124 649 Z" stroke="black" fill="none"/>
<path d="M 313 106 L 309 110 L 304 122 L 306 139 L 304 145 L 306 152 L 310 152 L 308 148 L 308 153 L 305 149 L 304 122 L 309 111 L 315 106 L 317 126 L 329 144 L 335 147 L 333 150 L 331 148 L 331 151 L 325 145 L 324 140 L 319 136 L 313 125 L 313 116 L 313 126 L 325 146 L 338 157 L 344 159 L 331 151 L 335 147 L 350 158 L 347 160 L 352 158 L 380 174 L 379 176 L 358 164 L 347 162 L 359 165 L 379 176 L 381 174 L 369 166 L 350 158 L 334 146 L 320 131 L 315 121 L 316 106 Z" stroke="black" fill="none"/>
<path d="M 724 725 L 721 728 L 722 736 L 724 736 L 726 728 L 730 731 L 730 736 L 732 736 L 733 730 L 731 726 Z" stroke="black" fill="none"/>
<path d="M 418 83 L 428 92 L 449 122 L 466 140 L 477 157 L 484 173 L 486 173 L 480 157 L 483 154 L 479 155 L 483 150 L 486 152 L 485 149 L 479 154 L 476 150 L 485 167 L 485 173 L 472 149 L 473 144 L 467 131 L 467 125 L 470 122 L 476 126 L 476 132 L 476 125 L 473 122 L 469 122 L 467 125 L 467 131 L 473 145 L 472 148 L 449 121 L 428 91 Z" stroke="black" fill="none"/>
<path d="M 363 71 L 363 81 L 359 82 L 360 74 L 359 83 L 363 85 L 361 87 L 370 104 L 369 107 L 366 108 L 360 97 L 362 93 L 359 94 L 358 85 L 363 105 L 372 119 L 385 132 L 386 130 L 378 124 L 379 122 L 378 124 L 369 114 L 366 108 L 370 107 L 393 134 L 370 106 L 361 83 L 363 81 L 378 113 L 391 128 L 395 129 L 378 112 L 368 95 L 363 81 Z" stroke="black" fill="none"/>
<path d="M 303 730 L 300 734 L 301 741 L 304 741 L 303 735 L 306 732 L 309 735 L 309 741 L 311 741 L 311 732 L 306 729 Z" stroke="black" fill="none"/>
</svg>