<svg xmlns="http://www.w3.org/2000/svg" width="901" height="1489" viewBox="0 0 901 1489">
<path d="M 610 995 L 566 1056 L 545 1075 L 521 1088 L 496 1095 L 469 1096 L 452 1094 L 421 1082 L 427 1108 L 442 1134 L 469 1159 L 493 1175 L 502 1175 L 554 1144 L 581 1119 L 601 1089 L 605 1024 Z" stroke="black" fill="none"/>
<path d="M 199 482 L 178 496 L 168 516 L 161 551 L 163 599 L 171 640 L 181 668 L 199 697 L 221 717 L 219 673 L 223 647 L 235 617 L 234 607 L 236 603 L 238 607 L 235 590 L 224 565 L 220 565 L 209 580 L 203 601 L 203 615 L 211 647 L 198 626 L 195 599 L 203 574 L 209 565 L 220 557 L 220 553 L 209 535 L 194 523 L 185 523 L 181 527 L 173 549 L 171 538 L 174 528 L 184 516 L 198 515 L 211 522 L 232 552 L 244 590 L 253 569 L 255 542 L 251 523 L 241 506 L 221 487 Z" stroke="black" fill="none"/>
<path d="M 540 463 L 528 473 L 517 492 L 510 518 L 511 531 L 525 549 L 551 560 L 570 560 L 584 556 L 599 542 L 605 527 L 606 510 L 600 490 L 594 480 L 574 464 L 559 460 Z" stroke="black" fill="none"/>
<path d="M 384 463 L 368 480 L 355 505 L 354 525 L 363 544 L 364 554 L 383 564 L 403 566 L 429 560 L 444 548 L 447 555 L 427 570 L 398 580 L 373 578 L 350 567 L 347 568 L 371 584 L 401 585 L 418 579 L 441 565 L 425 585 L 406 628 L 388 634 L 368 653 L 362 675 L 370 695 L 404 726 L 414 742 L 429 756 L 452 766 L 474 766 L 492 760 L 508 749 L 533 723 L 558 704 L 571 687 L 575 657 L 574 678 L 566 695 L 532 723 L 513 744 L 484 763 L 474 766 L 452 766 L 426 753 L 414 741 L 404 725 L 370 694 L 364 684 L 362 672 L 368 654 L 389 634 L 406 629 L 422 591 L 442 566 L 440 564 L 427 574 L 401 585 L 372 584 L 347 568 L 378 579 L 407 578 L 443 560 L 454 540 L 428 560 L 403 566 L 377 562 L 362 550 L 365 545 L 383 555 L 409 558 L 432 551 L 445 542 L 450 528 L 447 496 L 437 473 L 423 462 L 414 460 L 400 464 L 386 473 L 373 487 L 363 503 L 359 517 L 363 542 L 354 525 L 356 502 L 368 481 L 385 463 L 400 454 L 420 451 L 434 457 L 447 472 L 455 492 L 459 520 L 462 496 L 458 446 L 460 441 L 468 471 L 467 526 L 455 558 L 422 612 L 410 646 L 403 686 L 410 717 L 432 743 L 454 753 L 473 752 L 501 737 L 532 706 L 546 697 L 560 680 L 562 655 L 558 645 L 550 636 L 529 625 L 546 625 L 559 632 L 568 641 L 574 653 L 595 664 L 614 669 L 660 673 L 676 680 L 689 695 L 693 706 L 692 722 L 661 804 L 663 789 L 683 725 L 683 710 L 679 700 L 663 687 L 603 676 L 577 657 L 598 674 L 623 681 L 656 685 L 668 690 L 679 701 L 683 710 L 683 725 L 660 801 L 660 804 L 663 804 L 693 718 L 693 706 L 687 691 L 677 680 L 660 673 L 614 669 L 595 664 L 575 653 L 560 632 L 546 625 L 532 623 L 528 626 L 543 632 L 558 646 L 562 655 L 561 677 L 545 697 L 531 706 L 500 737 L 473 752 L 454 753 L 433 743 L 418 728 L 409 715 L 404 697 L 406 663 L 420 617 L 455 559 L 463 540 L 469 513 L 467 463 L 461 441 L 458 443 L 462 483 L 458 519 L 456 496 L 451 480 L 435 457 L 425 452 L 410 451 Z" stroke="black" fill="none"/>
<path d="M 404 791 L 405 833 L 410 853 L 436 863 L 467 864 L 469 862 L 465 834 L 466 808 L 430 801 Z" stroke="black" fill="none"/>
<path d="M 529 797 L 472 810 L 471 865 L 515 863 L 525 855 L 529 841 Z" stroke="black" fill="none"/>
<path d="M 239 1228 L 234 1257 L 231 1308 L 233 1379 L 239 1428 L 236 1426 L 225 1380 L 217 1332 L 214 1331 L 213 1358 L 223 1411 L 239 1448 L 243 1474 L 249 1474 L 251 1466 L 239 1305 Z" stroke="black" fill="none"/>
<path d="M 584 895 L 579 897 L 563 920 L 537 944 L 512 958 L 489 963 L 456 962 L 423 950 L 400 931 L 375 897 L 372 896 L 392 939 L 413 959 L 429 968 L 455 976 L 488 977 L 516 971 L 544 954 L 560 936 Z" stroke="black" fill="none"/>
<path d="M 805 1225 L 802 1225 L 777 1271 L 753 1342 L 739 1416 L 736 1469 L 739 1472 L 746 1470 L 753 1388 L 763 1334 L 780 1279 Z" stroke="black" fill="none"/>
<path d="M 567 782 L 536 795 L 533 838 L 535 853 L 551 848 L 559 840 Z" stroke="black" fill="none"/>
<path d="M 359 662 L 352 671 L 342 677 L 293 687 L 278 699 L 273 708 L 273 737 L 290 777 L 306 805 L 307 799 L 295 777 L 280 729 L 282 717 L 286 709 L 303 695 L 347 681 L 357 671 Z" stroke="black" fill="none"/>
<path d="M 402 633 L 385 647 L 375 667 L 375 678 L 379 688 L 394 703 L 397 664 L 404 637 Z" stroke="black" fill="none"/>
<path d="M 593 769 L 574 779 L 567 828 L 569 832 L 579 823 L 586 810 L 591 793 Z" stroke="black" fill="none"/>
<path d="M 745 160 L 710 161 L 693 168 L 680 181 L 683 181 L 694 168 L 722 159 L 754 162 L 782 176 L 795 191 L 770 174 L 743 166 L 708 169 L 684 183 L 708 177 L 738 176 L 756 181 L 770 191 L 790 212 L 807 242 L 814 272 L 815 303 L 812 307 L 809 304 L 807 288 L 795 255 L 770 227 L 771 231 L 767 229 L 787 250 L 794 265 L 793 257 L 799 266 L 798 273 L 804 297 L 804 323 L 794 366 L 772 411 L 766 435 L 758 451 L 752 479 L 742 500 L 770 483 L 792 481 L 810 489 L 823 502 L 832 517 L 840 546 L 842 588 L 839 621 L 826 666 L 800 711 L 773 736 L 739 746 L 726 792 L 704 840 L 628 960 L 618 1033 L 631 1043 L 642 1060 L 651 1081 L 656 1105 L 718 1138 L 809 1194 L 836 1218 L 848 1235 L 865 1275 L 881 1335 L 892 1393 L 900 1458 L 898 1461 L 890 1461 L 860 1312 L 847 1266 L 833 1237 L 805 1208 L 657 1114 L 651 1161 L 637 1206 L 623 1233 L 588 1282 L 582 1278 L 548 1217 L 547 1224 L 542 1228 L 517 1271 L 532 1381 L 534 1475 L 531 1486 L 525 1481 L 525 1470 L 507 1485 L 524 1470 L 525 1482 L 532 1486 L 534 1475 L 532 1381 L 517 1271 L 535 1245 L 542 1229 L 547 1225 L 547 1217 L 582 1279 L 588 1283 L 623 1234 L 636 1209 L 651 1161 L 657 1115 L 804 1208 L 833 1238 L 854 1288 L 870 1354 L 889 1461 L 899 1461 L 892 1393 L 881 1335 L 867 1281 L 848 1234 L 836 1217 L 810 1194 L 719 1138 L 657 1105 L 642 1059 L 631 1042 L 618 1032 L 628 961 L 704 841 L 726 792 L 739 747 L 774 736 L 800 712 L 825 669 L 839 621 L 842 588 L 840 546 L 832 516 L 823 501 L 811 489 L 792 481 L 767 484 L 742 500 L 751 482 L 758 451 L 765 438 L 772 412 L 791 374 L 800 347 L 804 323 L 804 297 L 798 268 L 807 288 L 809 305 L 813 307 L 815 303 L 814 272 L 807 242 L 790 211 L 771 191 L 759 182 L 738 176 L 708 177 L 686 182 L 712 168 L 743 166 L 767 173 L 796 192 L 796 189 L 776 171 Z" stroke="black" fill="none"/>
<path d="M 421 80 L 454 84 L 501 100 L 543 125 L 566 145 L 568 142 L 576 151 L 575 153 L 568 145 L 574 153 L 577 151 L 546 120 L 515 101 L 486 89 L 455 81 L 433 78 Z" stroke="black" fill="none"/>
<path d="M 503 308 L 507 310 L 518 304 L 544 297 L 584 297 L 615 308 L 630 318 L 645 334 L 648 333 L 635 317 L 619 306 L 581 293 L 557 292 L 536 295 Z" stroke="black" fill="none"/>
<path d="M 479 303 L 462 287 L 440 282 L 419 283 L 397 288 L 371 299 L 345 324 L 348 325 L 363 309 L 377 300 L 415 287 L 451 287 L 466 294 L 477 307 Z" stroke="black" fill="none"/>
<path d="M 198 303 L 198 342 L 209 383 L 223 417 L 230 456 L 242 487 L 225 475 L 200 470 L 177 479 L 163 496 L 154 518 L 148 552 L 150 600 L 159 646 L 167 668 L 184 699 L 201 717 L 222 727 L 234 777 L 255 825 L 273 856 L 341 955 L 377 1040 L 400 1070 L 385 1102 L 377 1111 L 318 1143 L 244 1189 L 212 1222 L 197 1256 L 177 1331 L 158 1445 L 159 1465 L 168 1464 L 188 1351 L 200 1297 L 215 1248 L 232 1220 L 274 1187 L 377 1122 L 374 1154 L 376 1196 L 383 1230 L 399 1274 L 406 1274 L 446 1209 L 453 1245 L 461 1260 L 470 1265 L 461 1259 L 451 1240 L 445 1209 L 406 1273 L 399 1273 L 383 1230 L 376 1196 L 374 1154 L 378 1122 L 273 1187 L 241 1210 L 225 1228 L 217 1243 L 199 1301 L 169 1460 L 166 1465 L 162 1459 L 161 1465 L 158 1462 L 162 1413 L 176 1336 L 197 1256 L 212 1223 L 245 1189 L 302 1153 L 379 1110 L 400 1071 L 400 1067 L 377 1039 L 341 954 L 273 855 L 255 824 L 233 774 L 222 726 L 202 717 L 184 698 L 170 674 L 159 646 L 150 600 L 148 552 L 151 530 L 160 502 L 178 479 L 193 471 L 217 472 L 231 479 L 239 488 L 242 487 L 230 456 L 223 417 L 214 398 L 198 342 Z" stroke="black" fill="none"/>
<path d="M 462 333 L 462 397 L 458 424 L 461 423 L 468 397 L 467 352 Z" stroke="black" fill="none"/>
<path d="M 470 1267 L 455 1291 L 439 1346 L 422 1430 L 419 1473 L 425 1476 L 438 1459 L 431 1471 L 437 1468 L 439 1470 L 434 1473 L 433 1479 L 439 1479 L 446 1471 L 447 1474 L 440 1481 L 443 1482 L 467 1456 L 447 1483 L 470 1464 L 472 1467 L 465 1480 L 480 1468 L 481 1470 L 468 1483 L 468 1487 L 492 1470 L 495 1472 L 488 1478 L 488 1483 L 503 1472 L 493 1484 L 495 1488 L 510 1473 L 512 1475 L 505 1485 L 524 1464 L 524 1459 L 523 1461 L 520 1457 L 524 1455 L 520 1456 L 522 1461 L 495 1487 L 493 1485 L 503 1472 L 501 1471 L 490 1483 L 488 1479 L 502 1464 L 498 1465 L 502 1465 L 499 1468 L 494 1468 L 497 1470 L 495 1472 L 491 1470 L 469 1487 L 468 1484 L 481 1468 L 465 1479 L 471 1468 L 487 1453 L 486 1448 L 479 1456 L 475 1455 L 474 1457 L 479 1457 L 448 1483 L 447 1481 L 472 1456 L 467 1456 L 470 1453 L 442 1482 L 440 1481 L 447 1474 L 446 1471 L 435 1479 L 433 1477 L 445 1462 L 431 1470 L 447 1455 L 447 1450 L 444 1454 L 446 1455 L 443 1458 L 441 1455 L 424 1476 L 419 1472 L 422 1430 L 439 1346 L 454 1294 Z" stroke="black" fill="none"/>
<path d="M 523 332 L 517 341 L 506 383 L 506 406 L 511 423 L 514 422 L 513 372 Z" stroke="black" fill="none"/>
<path d="M 267 221 L 237 249 L 216 278 L 214 274 L 216 278 L 209 294 L 212 294 L 213 287 L 229 264 L 268 224 L 256 235 L 254 233 Z" stroke="black" fill="none"/>
<path d="M 336 121 L 325 123 L 293 138 L 262 162 L 265 164 L 295 141 Z" stroke="black" fill="none"/>
<path d="M 411 182 L 428 182 L 485 202 L 535 201 L 578 193 L 594 196 L 598 191 L 615 195 L 616 191 L 612 196 L 597 191 L 593 196 L 578 193 L 535 201 L 485 202 L 428 182 L 403 183 L 358 195 L 332 207 L 304 234 L 286 266 L 280 309 L 281 340 L 291 387 L 281 514 L 269 563 L 237 647 L 232 682 L 233 703 L 240 748 L 259 802 L 287 853 L 348 944 L 392 1038 L 413 1061 L 430 1071 L 457 1080 L 487 1081 L 521 1072 L 554 1048 L 573 1019 L 592 967 L 567 1030 L 545 1056 L 520 1072 L 494 1080 L 463 1081 L 435 1073 L 414 1061 L 390 1034 L 348 943 L 268 819 L 245 766 L 233 703 L 232 682 L 237 647 L 269 563 L 281 514 L 291 394 L 280 325 L 282 288 L 287 263 L 304 235 L 333 207 L 373 190 Z" stroke="black" fill="none"/>
<path d="M 590 63 L 612 88 L 630 126 L 628 113 L 615 86 L 598 67 Z" stroke="black" fill="none"/>
<path d="M 423 157 L 466 167 L 507 183 L 496 175 L 463 163 Z" stroke="black" fill="none"/>
<path d="M 722 216 L 761 256 L 762 253 L 765 255 L 762 258 L 765 262 L 766 258 L 769 261 L 766 265 L 776 281 L 774 270 L 771 267 L 775 274 L 774 278 L 768 267 L 769 261 L 762 249 L 739 225 L 725 214 Z" stroke="black" fill="none"/>
<path d="M 255 311 L 249 312 L 231 338 L 220 371 L 240 330 Z" stroke="black" fill="none"/>
<path d="M 474 118 L 476 123 L 514 142 L 559 175 L 566 175 L 556 168 L 559 165 L 553 163 L 557 165 L 555 168 L 523 144 L 529 141 L 490 121 L 527 140 L 527 143 L 501 129 L 524 141 L 522 143 L 479 121 L 521 142 L 531 150 L 530 152 L 477 123 L 475 118 L 480 117 Z" stroke="black" fill="none"/>
<path d="M 664 727 L 655 715 L 634 707 L 651 713 L 662 723 L 664 733 L 659 742 L 653 723 L 650 723 L 635 740 L 605 816 L 565 874 L 531 905 L 511 915 L 489 921 L 459 921 L 442 917 L 427 910 L 410 897 L 381 857 L 341 778 L 331 752 L 308 729 L 302 741 L 304 749 L 303 735 L 308 730 L 331 753 L 342 781 L 381 858 L 409 897 L 426 910 L 442 917 L 459 921 L 489 921 L 511 915 L 532 905 L 565 875 L 605 817 L 635 741 L 652 723 L 657 730 L 659 743 Z" stroke="black" fill="none"/>
<path d="M 726 193 L 762 212 L 773 224 L 775 223 L 763 208 L 748 199 Z" stroke="black" fill="none"/>
<path d="M 628 188 L 622 193 L 618 191 L 621 193 L 627 188 L 649 203 L 652 198 L 691 249 L 703 275 L 708 304 L 708 331 L 686 408 L 683 445 L 709 591 L 723 623 L 730 650 L 733 691 L 724 751 L 698 821 L 623 942 L 586 1011 L 583 1010 L 591 990 L 594 967 L 591 990 L 582 1016 L 623 943 L 682 851 L 702 813 L 724 751 L 733 691 L 730 650 L 722 620 L 709 591 L 683 445 L 686 408 L 708 331 L 708 304 L 703 275 L 691 248 L 653 198 L 650 203 Z" stroke="black" fill="none"/>
<path d="M 666 148 L 666 163 L 666 148 L 662 134 L 642 92 L 630 76 L 603 51 L 588 42 L 553 31 L 509 32 L 483 39 L 456 51 L 389 63 L 341 80 L 307 106 L 262 152 L 219 209 L 210 228 L 210 236 L 210 228 L 219 210 L 262 153 L 308 106 L 342 80 L 389 63 L 457 51 L 486 38 L 509 32 L 553 31 L 585 41 L 602 51 L 630 77 L 642 93 L 660 129 Z" stroke="black" fill="none"/>
<path d="M 700 228 L 735 257 L 768 303 L 770 302 L 757 278 L 741 257 L 727 247 L 732 249 L 751 271 L 769 302 L 739 259 L 723 246 L 727 245 L 706 228 Z" stroke="black" fill="none"/>
<path d="M 618 1045 L 618 1071 L 612 1091 L 602 1109 L 558 1154 L 523 1173 L 535 1169 L 559 1154 L 602 1110 L 612 1091 L 618 1071 L 619 1056 L 616 1053 L 616 1046 L 629 1062 L 639 1083 L 643 1103 L 641 1151 L 623 1208 L 589 1265 L 585 1266 L 560 1216 L 545 1193 L 523 1175 L 545 1194 L 586 1268 L 620 1215 L 636 1173 L 642 1145 L 643 1103 L 640 1087 L 629 1061 Z" stroke="black" fill="none"/>
<path d="M 340 550 L 333 549 L 314 554 L 299 563 L 294 570 L 316 557 Z" stroke="black" fill="none"/>
<path d="M 623 551 L 647 555 L 670 565 L 660 557 L 645 551 Z" stroke="black" fill="none"/>
<path d="M 450 182 L 484 194 L 506 196 Z" stroke="black" fill="none"/>
<path d="M 482 1181 L 474 1180 L 478 1183 L 473 1188 L 470 1186 L 458 1203 L 466 1196 L 470 1196 Z" stroke="black" fill="none"/>
<path d="M 537 454 L 520 469 L 507 497 L 504 526 L 510 549 L 526 570 L 548 583 L 581 586 L 596 582 L 607 573 L 581 581 L 549 578 L 527 565 L 519 557 L 510 540 L 515 552 L 526 565 L 549 578 L 581 581 L 607 574 L 591 584 L 561 586 L 546 582 L 527 570 L 509 546 L 504 525 L 510 488 L 529 460 L 540 453 L 555 450 L 569 452 L 584 459 L 604 480 L 612 502 L 610 537 L 596 558 L 581 566 L 552 568 L 526 556 L 514 543 L 508 525 L 510 536 L 517 548 L 528 558 L 543 565 L 570 568 L 584 565 L 597 558 L 610 537 L 612 502 L 606 483 L 597 469 L 585 459 L 569 452 L 555 450 Z" stroke="black" fill="none"/>
<path d="M 331 174 L 328 172 L 306 182 L 289 194 Z" stroke="black" fill="none"/>
<path d="M 788 495 L 779 495 L 762 501 L 747 512 L 731 531 L 722 568 L 724 598 L 728 605 L 731 604 L 751 558 L 760 545 L 777 530 L 792 527 L 803 529 L 815 544 L 815 561 L 814 541 L 804 529 L 792 527 L 777 530 L 760 544 L 751 557 L 729 605 L 724 598 L 724 553 L 735 526 L 748 512 L 765 500 L 779 495 L 797 497 L 814 512 L 825 537 L 828 555 L 828 601 L 824 630 L 808 674 L 791 701 L 772 721 L 744 734 L 773 721 L 790 703 L 809 672 L 824 630 L 828 601 L 828 555 L 824 533 L 811 507 L 801 499 Z" stroke="black" fill="none"/>
<path d="M 733 325 L 745 369 L 748 401 L 745 371 L 748 371 L 751 404 L 744 351 Z" stroke="black" fill="none"/>
<path d="M 471 62 L 497 66 L 529 80 L 549 94 L 551 99 L 511 74 L 471 64 L 500 70 L 526 82 L 554 101 L 579 125 L 577 120 L 578 124 L 574 121 L 575 117 L 568 111 L 575 118 L 573 119 L 565 111 L 567 108 L 530 80 L 494 65 Z" stroke="black" fill="none"/>
<path d="M 579 116 L 601 151 L 603 149 L 585 120 Z" stroke="black" fill="none"/>
<path d="M 416 144 L 369 146 L 369 149 L 407 147 Z" stroke="black" fill="none"/>
<path d="M 710 404 L 724 452 L 716 413 Z" stroke="black" fill="none"/>
<path d="M 619 545 L 657 539 L 636 537 L 619 542 Z" stroke="black" fill="none"/>
<path d="M 493 1353 L 466 1380 L 466 1384 L 485 1367 L 480 1366 L 485 1361 L 489 1363 L 487 1368 L 490 1365 L 488 1361 L 491 1358 L 496 1359 Z" stroke="black" fill="none"/>
<path d="M 241 299 L 236 301 L 235 306 L 225 317 L 217 333 L 215 350 L 223 331 L 221 326 L 234 308 L 225 327 Z" stroke="black" fill="none"/>
<path d="M 411 1076 L 393 1109 L 385 1156 L 388 1202 L 403 1260 L 440 1198 L 456 1180 L 470 1173 L 462 1175 L 448 1187 L 428 1215 L 405 1258 L 402 1257 L 388 1202 L 385 1156 L 391 1116 L 409 1077 L 412 1078 L 413 1100 L 425 1129 L 440 1148 L 471 1171 L 441 1148 L 425 1128 L 413 1100 Z" stroke="black" fill="none"/>
<path d="M 646 716 L 634 709 L 645 717 L 627 735 L 605 751 L 538 781 L 489 794 L 447 793 L 400 776 L 343 749 L 312 723 L 319 715 L 305 720 L 298 727 L 296 736 L 302 749 L 296 732 L 306 720 L 318 715 L 312 724 L 342 749 L 397 775 L 447 793 L 489 794 L 511 790 L 549 777 L 612 748 Z" stroke="black" fill="none"/>
<path d="M 520 623 L 524 662 L 524 629 Z" stroke="black" fill="none"/>
<path d="M 402 164 L 404 167 L 437 170 L 435 167 L 420 164 Z" stroke="black" fill="none"/>
<path d="M 749 287 L 764 320 L 765 311 Z" stroke="black" fill="none"/>
<path d="M 519 51 L 520 54 L 567 74 L 599 103 L 610 121 L 612 120 L 609 111 L 595 92 L 566 66 L 563 66 L 577 75 L 595 93 L 612 117 L 611 121 L 599 102 L 572 77 L 519 52 L 545 57 L 561 64 Z" stroke="black" fill="none"/>
<path d="M 520 1228 L 508 1238 L 511 1241 L 502 1244 L 506 1246 L 497 1255 L 497 1259 L 515 1242 L 514 1239 L 513 1243 L 505 1247 L 511 1241 L 510 1237 L 513 1234 L 515 1236 Z" stroke="black" fill="none"/>
<path d="M 484 1204 L 469 1217 L 462 1214 L 463 1217 L 459 1217 L 457 1222 L 459 1218 L 459 1222 L 464 1217 L 467 1219 L 459 1228 L 465 1220 L 470 1221 L 481 1211 Z" stroke="black" fill="none"/>
<path d="M 798 535 L 809 545 L 813 560 L 807 541 L 801 536 L 792 535 L 770 553 L 760 568 L 777 580 L 789 605 L 790 634 L 780 657 L 769 669 L 767 667 L 782 633 L 780 603 L 773 586 L 767 580 L 757 579 L 753 582 L 737 620 L 745 654 L 747 681 L 742 734 L 747 681 L 745 654 L 737 620 L 753 583 L 758 579 L 766 580 L 778 596 L 782 611 L 781 638 L 767 667 L 770 669 L 780 658 L 790 634 L 789 605 L 777 579 L 771 573 L 760 569 L 770 554 L 787 538 Z" stroke="black" fill="none"/>
<path d="M 747 324 L 745 327 L 748 332 L 745 326 L 749 327 L 756 347 L 753 349 L 750 340 L 759 379 L 761 377 L 757 350 Z" stroke="black" fill="none"/>
<path d="M 255 351 L 249 359 L 242 381 L 246 377 Z" stroke="black" fill="none"/>
<path d="M 448 362 L 453 391 L 452 420 L 441 416 L 411 414 L 378 422 L 343 448 L 330 464 L 319 487 L 316 483 L 315 464 L 322 428 L 333 403 L 351 382 L 367 371 L 397 359 L 424 356 L 446 362 L 424 356 L 397 359 L 374 367 L 350 382 L 333 402 L 322 428 L 315 464 L 317 487 L 320 488 L 327 470 L 343 449 L 361 433 L 381 421 L 411 414 L 441 416 L 453 420 L 452 378 Z" stroke="black" fill="none"/>
<path d="M 534 359 L 520 391 L 519 421 L 547 417 L 569 418 L 608 433 L 632 456 L 643 475 L 651 499 L 656 481 L 654 436 L 645 407 L 634 389 L 613 371 L 590 360 L 572 356 L 546 357 L 572 356 L 590 360 L 621 377 L 634 390 L 646 410 L 654 436 L 656 481 L 650 499 L 637 463 L 626 447 L 609 433 L 569 418 L 519 420 L 518 402 L 525 376 L 535 359 L 549 353 L 547 355 L 549 352 Z" stroke="black" fill="none"/>
<path d="M 516 1195 L 501 1207 L 501 1212 L 497 1209 L 494 1215 L 502 1212 Z" stroke="black" fill="none"/>
<path d="M 479 1354 L 467 1366 L 470 1368 L 467 1371 L 464 1369 L 451 1386 L 457 1383 L 458 1380 L 453 1383 L 457 1377 L 463 1377 L 470 1369 L 469 1364 L 472 1366 L 475 1363 L 473 1359 L 475 1357 L 476 1361 Z" stroke="black" fill="none"/>
<path d="M 498 1248 L 485 1259 L 487 1262 L 492 1256 L 494 1258 L 489 1266 L 494 1263 L 492 1256 Z" stroke="black" fill="none"/>
<path d="M 267 348 L 256 379 L 268 353 Z" stroke="black" fill="none"/>
<path d="M 462 1360 L 444 1377 L 443 1384 L 446 1382 L 446 1379 L 443 1383 L 444 1378 L 450 1377 L 460 1367 Z" stroke="black" fill="none"/>
<path d="M 468 1421 L 434 1453 L 434 1456 L 438 1450 L 440 1452 L 458 1433 L 446 1442 L 458 1430 L 460 1432 L 467 1426 L 458 1430 Z" stroke="black" fill="none"/>
<path d="M 270 374 L 258 396 L 259 403 L 254 410 L 255 403 L 253 409 L 256 410 L 264 392 L 263 387 L 265 385 L 266 389 Z" stroke="black" fill="none"/>
<path d="M 288 179 L 271 187 L 261 196 L 268 190 L 272 191 L 288 182 Z" stroke="black" fill="none"/>
<path d="M 498 1380 L 476 1405 L 482 1401 L 476 1404 L 481 1398 L 485 1399 L 484 1395 L 490 1393 L 494 1385 L 496 1388 L 500 1382 Z" stroke="black" fill="none"/>
<path d="M 726 390 L 733 412 L 738 447 L 732 413 L 736 413 L 740 447 L 735 410 L 732 411 L 734 407 L 731 394 Z" stroke="black" fill="none"/>
<path d="M 390 176 L 374 178 L 364 183 L 388 179 Z" stroke="black" fill="none"/>
<path d="M 512 1323 L 512 1326 L 501 1334 L 505 1342 L 513 1335 L 510 1332 L 514 1330 L 506 1334 Z" stroke="black" fill="none"/>
<path d="M 519 1413 L 507 1426 L 514 1422 Z" stroke="black" fill="none"/>
<path d="M 507 1189 L 498 1194 L 492 1202 Z" stroke="black" fill="none"/>
<path d="M 484 1338 L 476 1344 L 473 1352 L 471 1350 L 473 1353 Z" stroke="black" fill="none"/>
<path d="M 508 1276 L 502 1281 L 503 1284 L 508 1277 L 506 1288 L 496 1288 L 491 1296 L 497 1291 L 501 1292 L 501 1288 L 507 1288 L 505 1286 Z" stroke="black" fill="none"/>
<path d="M 512 1190 L 497 1202 L 500 1202 L 497 1206 L 492 1205 L 490 1208 L 503 1202 Z" stroke="black" fill="none"/>
<path d="M 494 1279 L 481 1289 L 488 1285 L 481 1294 L 475 1294 L 471 1302 L 488 1287 L 487 1284 Z" stroke="black" fill="none"/>
<path d="M 266 295 L 255 307 L 260 306 Z" stroke="black" fill="none"/>
<path d="M 679 175 L 676 175 L 672 192 Z" stroke="black" fill="none"/>
<path d="M 459 1413 L 441 1431 L 446 1426 L 447 1428 L 442 1433 L 455 1421 L 448 1424 L 454 1417 L 460 1421 L 457 1420 L 458 1417 L 460 1419 Z" stroke="black" fill="none"/>
<path d="M 488 1233 L 480 1241 L 483 1242 L 481 1241 L 487 1233 L 487 1244 L 484 1244 L 475 1256 L 485 1249 Z" stroke="black" fill="none"/>
<path d="M 716 264 L 728 279 L 723 273 L 725 271 L 731 279 L 729 274 Z" stroke="black" fill="none"/>
<path d="M 473 1229 L 463 1241 L 470 1239 Z" stroke="black" fill="none"/>
<path d="M 467 1330 L 463 1329 L 451 1341 L 450 1346 L 454 1342 L 451 1346 L 450 1344 L 454 1339 L 467 1333 Z" stroke="black" fill="none"/>
<path d="M 767 320 L 770 336 L 772 330 Z" stroke="black" fill="none"/>
<path d="M 474 1438 L 471 1439 L 474 1438 L 471 1443 L 468 1441 L 462 1447 L 466 1444 L 468 1446 L 450 1458 L 459 1448 L 460 1450 L 460 1447 L 446 1459 L 452 1460 L 464 1451 Z" stroke="black" fill="none"/>
<path d="M 492 1399 L 485 1409 L 487 1412 L 493 1404 Z" stroke="black" fill="none"/>
<path d="M 219 223 L 212 232 L 216 226 L 218 229 L 207 245 L 194 275 L 190 294 L 192 322 L 196 304 L 194 317 L 192 318 L 190 313 L 194 275 Z" stroke="black" fill="none"/>
<path d="M 489 1194 L 484 1194 L 483 1196 L 487 1196 L 483 1199 L 479 1194 L 480 1198 L 473 1205 L 480 1203 Z" stroke="black" fill="none"/>
<path d="M 515 1224 L 502 1235 L 510 1228 L 511 1230 L 502 1241 L 501 1237 L 498 1243 L 500 1239 L 503 1241 Z" stroke="black" fill="none"/>
<path d="M 473 1388 L 469 1388 L 448 1408 L 448 1415 L 453 1409 L 448 1414 L 448 1409 L 468 1390 L 469 1393 L 456 1408 L 469 1394 L 468 1390 L 471 1387 L 471 1392 Z" stroke="black" fill="none"/>
<path d="M 453 1394 L 445 1400 L 449 1402 L 447 1405 L 454 1397 Z" stroke="black" fill="none"/>
<path d="M 506 1303 L 493 1322 L 498 1321 L 499 1325 L 496 1328 L 496 1324 L 492 1332 L 499 1325 L 499 1320 L 494 1321 L 500 1313 L 500 1318 L 510 1314 L 510 1307 L 509 1314 L 506 1313 L 508 1311 L 505 1316 L 500 1313 L 506 1309 Z" stroke="black" fill="none"/>
<path d="M 517 1352 L 514 1352 L 509 1360 L 515 1357 Z" stroke="black" fill="none"/>
<path d="M 503 1343 L 498 1344 L 495 1353 L 504 1345 Z" stroke="black" fill="none"/>
<path d="M 490 1298 L 487 1297 L 475 1310 L 481 1309 L 486 1303 L 485 1300 Z" stroke="black" fill="none"/>
<path d="M 408 367 L 400 367 L 389 373 Z" stroke="black" fill="none"/>
<path d="M 630 137 L 631 148 L 634 151 L 633 140 Z" stroke="black" fill="none"/>
<path d="M 492 1428 L 488 1427 L 483 1435 L 489 1433 Z" stroke="black" fill="none"/>
<path d="M 510 1259 L 507 1259 L 502 1267 L 505 1267 Z" stroke="black" fill="none"/>
<path d="M 337 155 L 339 158 L 349 157 Z" stroke="black" fill="none"/>
<path d="M 699 432 L 697 438 L 701 445 Z" stroke="black" fill="none"/>
<path d="M 516 1367 L 517 1370 L 511 1376 L 517 1371 L 518 1378 L 511 1382 L 512 1385 L 518 1378 Z" stroke="black" fill="none"/>
<path d="M 370 772 L 378 821 L 382 829 L 397 840 L 386 832 L 378 821 L 369 773 L 399 789 L 400 840 L 399 788 Z" stroke="black" fill="none"/>
<path d="M 417 886 L 417 889 L 428 898 L 449 907 L 465 910 L 484 910 L 508 905 L 538 889 L 508 905 L 484 910 L 465 910 L 449 907 L 429 898 L 417 888 L 418 886 L 456 889 L 538 887 L 456 889 Z" stroke="black" fill="none"/>
<path d="M 517 1442 L 509 1448 L 512 1450 Z" stroke="black" fill="none"/>
<path d="M 442 1412 L 437 1426 L 438 1420 L 441 1418 L 441 1422 L 446 1417 Z" stroke="black" fill="none"/>
<path d="M 660 200 L 662 204 L 667 202 L 663 198 Z" stroke="black" fill="none"/>
<path d="M 501 1416 L 500 1419 L 498 1417 L 498 1422 L 496 1419 L 493 1421 L 493 1426 L 500 1421 Z" stroke="black" fill="none"/>
<path d="M 513 1367 L 510 1367 L 504 1378 L 508 1376 L 504 1377 L 507 1373 L 510 1374 Z" stroke="black" fill="none"/>
<path d="M 490 1216 L 476 1232 L 481 1234 L 477 1232 L 481 1232 L 480 1229 Z" stroke="black" fill="none"/>
<path d="M 298 155 L 289 159 L 297 158 Z" stroke="black" fill="none"/>
<path d="M 505 1291 L 504 1295 L 507 1293 L 509 1296 L 499 1306 L 504 1297 L 498 1306 L 509 1297 Z" stroke="black" fill="none"/>
<path d="M 506 1187 L 509 1185 L 510 1188 L 517 1184 L 510 1183 Z" stroke="black" fill="none"/>
<path d="M 530 39 L 549 43 L 547 40 L 538 42 L 535 40 L 539 39 Z" stroke="black" fill="none"/>
<path d="M 483 1274 L 474 1282 L 476 1283 Z" stroke="black" fill="none"/>
<path d="M 523 1424 L 518 1427 L 517 1433 L 523 1429 Z" stroke="black" fill="none"/>
<path d="M 577 174 L 579 179 L 583 179 Z" stroke="black" fill="none"/>
<path d="M 470 1277 L 473 1278 L 481 1272 L 474 1272 Z" stroke="black" fill="none"/>
<path d="M 301 219 L 293 224 L 297 224 Z" stroke="black" fill="none"/>
<path d="M 686 96 L 683 98 L 691 117 L 691 139 L 684 167 L 691 139 L 691 117 L 683 97 L 690 101 L 696 113 L 697 139 L 691 162 L 681 177 L 690 165 L 697 139 L 696 113 Z" stroke="black" fill="none"/>
<path d="M 306 119 L 300 121 L 300 124 L 305 123 Z" stroke="black" fill="none"/>
<path d="M 391 92 L 338 102 L 308 118 L 312 119 L 308 118 L 312 115 L 316 117 L 349 102 L 391 95 L 345 103 L 315 117 L 314 114 L 345 100 Z" stroke="black" fill="none"/>
<path d="M 475 1320 L 473 1319 L 469 1325 Z" stroke="black" fill="none"/>
<path d="M 512 1318 L 506 1324 L 510 1317 L 503 1327 L 510 1325 L 508 1324 Z" stroke="black" fill="none"/>
<path d="M 357 392 L 351 397 L 357 395 Z" stroke="black" fill="none"/>
<path d="M 515 1396 L 514 1399 L 518 1402 Z" stroke="black" fill="none"/>
<path d="M 457 1355 L 447 1361 L 446 1368 L 450 1364 L 449 1361 Z" stroke="black" fill="none"/>
<path d="M 523 1188 L 517 1193 L 522 1192 Z" stroke="black" fill="none"/>
<path d="M 378 404 L 371 408 Z" stroke="black" fill="none"/>
<path d="M 524 1218 L 521 1216 L 518 1221 Z" stroke="black" fill="none"/>
<path d="M 518 1359 L 510 1365 L 513 1362 L 515 1364 Z" stroke="black" fill="none"/>
<path d="M 478 1331 L 475 1331 L 478 1334 L 473 1341 L 475 1337 L 478 1338 Z" stroke="black" fill="none"/>
<path d="M 492 1210 L 487 1210 L 481 1217 L 486 1213 L 488 1215 Z" stroke="black" fill="none"/>
<path d="M 703 452 L 700 453 L 701 459 Z" stroke="black" fill="none"/>
<path d="M 444 1402 L 438 1410 L 440 1406 L 440 1410 L 444 1407 Z" stroke="black" fill="none"/>
<path d="M 504 1228 L 494 1236 L 501 1233 Z" stroke="black" fill="none"/>
<path d="M 532 1208 L 525 1214 L 528 1211 L 528 1215 Z" stroke="black" fill="none"/>
<path d="M 609 1051 L 609 1059 L 606 1060 L 608 1064 Z" stroke="black" fill="none"/>
<path d="M 459 1327 L 456 1328 L 456 1332 L 459 1331 Z" stroke="black" fill="none"/>
<path d="M 666 108 L 671 133 L 669 164 L 671 133 L 666 111 L 669 109 L 677 118 L 683 132 L 684 150 L 682 166 L 677 169 L 679 172 L 679 168 L 683 170 L 680 169 L 684 150 L 683 132 L 677 117 Z" stroke="black" fill="none"/>
<path d="M 507 1457 L 507 1463 Z" stroke="black" fill="none"/>
<path d="M 508 1433 L 497 1444 L 500 1445 L 497 1446 L 500 1446 L 498 1442 L 506 1434 L 507 1437 L 502 1442 L 506 1439 Z" stroke="black" fill="none"/>
<path d="M 488 1275 L 484 1277 L 486 1280 Z" stroke="black" fill="none"/>
<path d="M 514 1435 L 511 1436 L 511 1440 L 514 1439 Z" stroke="black" fill="none"/>
<path d="M 482 1312 L 477 1318 L 483 1314 Z" stroke="black" fill="none"/>
</svg>